<?xml version="1.0" standalone="no"?>
<!DOCTYPE svg PUBLIC "-//W3C//DTD SVG 20010904//EN"
 "http://www.w3.org/TR/2001/REC-SVG-20010904/DTD/svg10.dtd">
<svg version="1.0" xmlns="http://www.w3.org/2000/svg"
 width="206.000000pt" height="206.000000pt" viewBox="0 0 206.000000 206.000000"
 preserveAspectRatio="xMidYMid meet">

<g transform="translate(0.000000,206.000000) scale(0.100000,-0.100000)"
fill="#000000" stroke="none">
<path d="M368 1786 c-39 -17 -78 -56 -94 -95 -19 -45 -21 -1274 -2 -1318 17
-41 58 -83 97 -99 50 -21 1272 -21 1322 0 39 16 80 58 97 99 19 45 17 1273 -2
1318 -16 39 -58 80 -99 97 -40 17 -1280 16 -1319 -2z m594 -606 c10 -16 24
-20 68 -20 44 0 58 4 68 20 12 19 23 20 337 20 378 0 367 4 262 -97 -42 -40
-74 -63 -97 -68 -98 -20 -191 -55 -229 -85 -20 -17 -47 -30 -63 -30 -15 0 -30
-5 -33 -10 -3 -6 -17 -10 -31 -10 -14 0 -34 -4 -44 -10 -10 -5 -41 -10 -69
-11 -42 -2 -56 2 -76 21 l-25 23 -25 -23 c-20 -19 -34 -23 -76 -21 -28 1 -59
6 -69 11 -10 6 -30 10 -44 10 -14 0 -28 5 -31 10 -3 6 -18 10 -33 10 -16 0
-43 13 -63 30 -38 30 -131 65 -229 85 -23 5 -55 28 -97 68 -105 101 -116 97
262 97 314 0 325 -1 337 -20z"/>
<path d="M330 1170 c0 -6 108 -10 305 -10 197 0 305 4 305 10 0 6 -108 10
-305 10 -197 0 -305 -4 -305 -10z"/>
<path d="M1120 1170 c0 -6 108 -10 305 -10 197 0 305 4 305 10 0 6 -108 10
-305 10 -197 0 -305 -4 -305 -10z"/>
<path d="M370 1130 c0 -5 26 -10 58 -11 31 0 64 -2 72 -3 8 -2 46 -7 84 -11
38 -4 76 -9 84 -13 10 -3 13 0 10 9 -9 27 -308 55 -308 29z"/>
<path d="M713 1124 c-2 -7 -3 -25 -1 -41 2 -22 9 -29 31 -31 15 -2 27 1 27 7
0 6 -9 11 -21 11 -14 0 -19 5 -17 18 2 13 13 17 43 17 36 0 40 -3 40 -25 0
-20 6 -25 30 -27 31 -2 74 21 62 34 -4 3 -19 1 -33 -6 -29 -13 -50 -2 -42 21
6 14 108 16 141 3 25 -11 22 -39 -4 -32 -25 7 -51 -2 -43 -14 7 -12 144 -11
144 1 0 6 -8 10 -18 10 -26 0 -33 10 -21 32 6 10 15 15 21 11 17 -10 59 -10
65 0 2 4 11 3 19 -4 11 -9 18 -9 26 -1 13 13 53 15 122 6 35 -5 46 -11 46 -25
0 -13 -7 -17 -24 -16 -14 1 -25 -2 -26 -8 0 -5 16 -11 35 -13 l36 -3 -3 43 -3
43 -314 1 c-238 0 -314 -3 -318 -12z"/>
<path d="M1456 1126 c-43 -7 -71 -16 -74 -25 -3 -9 0 -12 11 -8 8 3 48 9 88
13 41 4 81 8 89 10 8 1 39 3 68 3 33 1 51 5 47 11 -8 13 -140 11 -229 -4z"/>
<path d="M465 1075 c28 -9 71 -19 98 -22 26 -3 50 -10 53 -14 3 -5 18 -9 34
-9 16 0 32 -4 35 -10 3 -5 15 -10 26 -10 10 0 19 5 19 10 0 6 -11 10 -25 10
-14 0 -25 4 -25 9 0 5 -15 12 -32 15 -104 21 -138 27 -183 31 l-50 5 50 -15z"/>
<path d="M1204 1079 c-9 -15 11 -33 30 -26 9 4 13 13 10 22 -7 17 -30 20 -40
4z"/>
<path d="M1558 1084 c-4 -3 -30 -9 -60 -14 -97 -17 -118 -22 -118 -31 0 -5
-11 -9 -25 -9 -14 0 -25 -4 -25 -10 0 -5 9 -10 19 -10 11 0 23 5 26 10 3 6 19
10 35 10 16 0 32 5 35 10 3 6 18 10 33 10 15 0 59 9 97 20 66 18 67 19 29 19
-22 1 -43 -2 -46 -5z"/>
<path d="M1105 1060 c3 -5 13 -10 21 -10 8 0 14 5 14 10 0 6 -9 10 -21 10 -11
0 -17 -4 -14 -10z"/>
<path d="M780 1020 c0 -5 -8 -10 -17 -10 -25 -1 -69 -35 -55 -44 13 -8 51 7
80 32 26 23 28 32 7 32 -8 0 -15 -4 -15 -10z"/>
<path d="M818 995 c-50 -37 -60 -55 -30 -55 17 0 92 68 92 83 0 13 -15 6 -62
-28z"/>
<path d="M876 981 c-32 -33 -44 -51 -36 -56 15 -9 60 14 60 32 0 7 4 13 9 13
5 0 11 8 15 18 3 9 9 23 12 30 12 26 -14 10 -60 -37z"/>
<path d="M936 974 c-29 -42 -36 -58 -27 -67 18 -18 40 2 63 56 31 71 10 77
-36 11z"/>
<path d="M1010 1006 c0 -14 -4 -28 -10 -31 -12 -7 -14 -45 -2 -45 4 0 13 5 20
12 9 9 15 9 24 0 7 -7 16 -12 20 -12 12 0 10 38 -2 45 -5 3 -10 17 -10 31 0
17 -5 24 -20 24 -15 0 -20 -7 -20 -24z"/>
<path d="M1075 1018 c-10 -24 37 -113 59 -113 31 0 28 17 -14 74 -29 40 -41
50 -45 39z"/>
<path d="M1124 1018 c3 -7 9 -21 12 -30 4 -10 10 -18 15 -18 5 0 9 -6 9 -13 0
-18 45 -41 60 -32 8 5 -4 23 -36 56 -46 47 -72 63 -60 37z"/>
<path d="M1180 1022 c0 -15 76 -82 93 -82 29 0 19 18 -30 55 -49 35 -63 41
-63 27z"/>
<path d="M1250 1024 c0 -23 83 -69 102 -58 14 9 -30 43 -54 44 -10 0 -18 5
-18 10 0 6 -7 10 -15 10 -8 0 -15 -3 -15 -6z"/>
</g>
</svg>
