<?xml version="1.0" encoding="UTF-8" standalone="no"?>
<svg
   xmlns:dc="http://purl.org/dc/elements/1.1/"
   xmlns:cc="http://creativecommons.org/ns#"
   xmlns:rdf="http://www.w3.org/1999/02/22-rdf-syntax-ns#"
   xmlns:svg="http://www.w3.org/2000/svg"
   xmlns="http://www.w3.org/2000/svg"
   xmlns:sodipodi="http://sodipodi.sourceforge.net/DTD/sodipodi-0.dtd"
   xmlns:inkscape="http://www.inkscape.org/namespaces/inkscape"
   id="Logo"
   viewBox="0 0 4096.0001 4096"
   version="1.1"
   sodipodi:docname="Heineken-logo-3.svg"
   inkscape:version="0.92.4 (5da689c313, 2019-01-14)"
   width="4096"
   height="4096"
   inkscape:export-filename="G:\Users\suitedoalex\sites\heineken-logo-0.png"
   inkscape:export-xdpi="96"
   inkscape:export-ydpi="96">
  <metadata
     id="metadata79">
    <rdf:RDF>
      <cc:Work
         rdf:about="">
        <dc:format>image/svg+xml</dc:format>
        <dc:type
           rdf:resource="http://purl.org/dc/dcmitype/StillImage" />
        <dc:title>Heineken - Open Your World V2</dc:title>
      </cc:Work>
    </rdf:RDF>
  </metadata>
  <sodipodi:namedview
     pagecolor="#ffffff"
     bordercolor="#666666"
     borderopacity="1"
     objecttolerance="10"
     gridtolerance="10"
     guidetolerance="10"
     inkscape:pageopacity="0"
     inkscape:pageshadow="2"
     inkscape:window-width="1600"
     inkscape:window-height="837"
     id="namedview77"
     showgrid="false"
     inkscape:zoom="0.063895687"
     inkscape:cx="7517.9165"
     inkscape:cy="3298.5828"
     inkscape:window-x="-8"
     inkscape:window-y="-8"
     inkscape:window-maximized="1"
     inkscape:current-layer="Logo" />
  <defs
     id="defs4">
    <style
       id="style2">.cls-1{fill:#fff;}.cls-2{fill:#e3000f;}</style>
  </defs>
  <title
     id="title6">Heineken - Open Your World V2</title>
  <rect
     style="fill:#007125;fill-opacity:1;fill-rule:evenodd;stroke-width:0.4846606"
     id="rect144"
     width="4096"
     height="4096"
     x="4437.6987"
     y="22.133162"
     inkscape:export-filename="G:\Users\suitedoalex\sites\heineken-logo-1.png"
     inkscape:export-xdpi="96"
     inkscape:export-ydpi="96" />
  <path
     class="cls-1"
     d="m 7088.2564,2106.3686 v -2.5641 h -17.1637 a 22.762845,22.762845 0 0 0 24.2281,25.6409 c 16.9544,0 27.2107,-10.4657 27.2107,-27.2631 0,-9.7854 -3.9246,-19.2045 -14.1286,-21.7163 v -0.3139 c 8.9481,-3.5584 11.3029,-12.9251 11.3029,-21.6116 0,-14.652 -8.5295,-24.0188 -23.3385,-24.0188 -16.7974,0 -22.0825,12.2972 -21.5593,27.1585 h 15.6986 v -1.9362 c 0,-4.0293 0.8372,-9.5761 6.1224,-9.5761 5.2851,0 6.2794,5.2328 6.2794,9.3668 0,10.4657 -4.134,12.1925 -14.0764,12.1925 v 15.6985 c 10.4657,-0.3663 13.8147,2.5118 13.8147,12.8205 0,5.2328 -0.4709,12.9774 -7.9015,12.9774 a 6.8550178,6.8550178 0 0 1 -6.8551,-7.169"
     id="path8-7"
     style="fill:#ffffff;fill-opacity:1;stroke-width:5.23283815"
     inkscape:connector-curvature="0"
     inkscape:export-filename="G:\Users\suitedoalex\sites\heineken-logo-1.png"
     inkscape:export-xdpi="96"
     inkscape:export-ydpi="96" />
  <polygon
     class="cls-1"
     points="418.59,178.38 425.21,160.79 415.71,160.79 415.71,163.81 420.44,163.81 414.95,178.38 "
     id="polygon10-2"
     style="fill:#ffffff;fill-opacity:1"
     transform="matrix(5.232838,0,0,5.232838,4834.0022,1194.5466)"
     inkscape:export-filename="G:\Users\suitedoalex\sites\heineken-logo-1.png"
     inkscape:export-xdpi="96"
     inkscape:export-ydpi="96" />
  <path
     class="cls-1"
     d="m 6970.8839,2078.3729 v 0 a 19.256844,19.256844 0 0 0 12.6111,-19.4662 23.0245,23.0245 0 1 0 -46.049,0 19.518486,19.518486 0 0 0 12.5065,19.4139 v 0.3139 c -11.3552,3.82 -16.0125,12.4542 -16.0125,24.3327 a 26.42585,26.42585 0 1 0 52.8517,0 c 0,-11.5645 -4.3432,-20.9313 -15.6985,-24.3327 m -10.7273,-29.6178 c 4.9712,0 5.5991,6.384 5.5991,9.7854 0,3.4013 0,10.4657 -5.5991,10.4657 -4.5526,0 -5.2329,-7.0644 -5.2329,-10.4657 0,-3.4014 0.7326,-9.6808 5.2329,-9.6808 m 0,64.7302 c -6.3318,0 -7.64,-8.3202 -7.64,-12.9774 0,-4.6572 1.3082,-13.3437 7.5353,-13.3437 6.2271,0 8.0586,8.7388 8.0586,13.3437 0,4.6049 -1.7792,12.9774 -7.9539,12.9774"
     id="path12-3"
     style="fill:#ffffff;fill-opacity:1;stroke-width:5.23283815"
     inkscape:connector-curvature="0"
     inkscape:export-filename="G:\Users\suitedoalex\sites\heineken-logo-1.png"
     inkscape:export-xdpi="96"
     inkscape:export-ydpi="96" />
  <polygon
     class="cls-1"
     points="396.53,178.38 396.53,160.79 391.49,160.79 391.49,163.81 393.17,163.81 393.17,178.38 "
     id="polygon14-6"
     style="fill:#ffffff;fill-opacity:1"
     transform="matrix(5.232838,0,0,5.232838,4834.0022,1194.5466)"
     inkscape:export-filename="G:\Users\suitedoalex\sites\heineken-logo-1.png"
     inkscape:export-xdpi="96"
     inkscape:export-ydpi="96" />
  <polygon
     class="cls-1"
     points="195.91,175.1 195.91,171.14 199.33,171.14 199.33,167.88 195.91,167.88 195.91,164.05 199.81,164.05 199.81,160.79 192.11,160.79 192.11,178.38 199.84,178.38 199.84,175.1 "
     id="polygon16-4"
     style="fill:#ffffff;fill-opacity:1"
     transform="matrix(5.232838,0,0,5.232838,4834.0022,1194.5466)"
     inkscape:export-filename="G:\Users\suitedoalex\sites\heineken-logo-1.png"
     inkscape:export-xdpi="96"
     inkscape:export-ydpi="96" />
  <path
     class="cls-1"
     d="m 6057.649,2106.2639 a 11.512244,11.512244 0 0 0 -11.7216,11.5123 11.669229,11.669229 0 0 0 11.7216,11.6692 11.459915,11.459915 0 0 0 11.3552,-11.6692 11.355258,11.355258 0 0 0 -11.3552,-11.5123"
     id="path18-2"
     style="fill:#ffffff;fill-opacity:1;stroke-width:5.23283815"
     inkscape:connector-curvature="0"
     inkscape:export-filename="G:\Users\suitedoalex\sites\heineken-logo-1.png"
     inkscape:export-xdpi="96"
     inkscape:export-ydpi="96" />
  <polygon
     class="cls-1"
     points="219.2,160.79 219.2,164.05 222.19,164.05 222.19,178.38 226.02,178.38 226.02,164.05 229.02,164.05 229.02,160.79 "
     id="polygon20-6"
     style="fill:#ffffff;fill-opacity:1"
     transform="matrix(5.232838,0,0,5.232838,4834.0022,1194.5466)"
     inkscape:export-filename="G:\Users\suitedoalex\sites\heineken-logo-1.png"
     inkscape:export-xdpi="96"
     inkscape:export-ydpi="96" />
  <path
     class="cls-1"
     d="m 5953.2015,2056.6566 v -17.7916 a 38.879986,38.879986 0 0 0 -17.8439,-4.3433 25.274608,25.274608 0 0 0 -26.1642,27.0015 c 0,13.2914 7.012,20.1987 18.5766,27.2107 5.5468,3.8723 11.8262,6.3841 11.8262,13.3961 a 10.465676,10.465676 0 0 1 -11.6169,10.0994 26.16419,26.16419 0 0 1 -15.0706,-4.9712 v 17.4777 a 34.118104,34.118104 0 0 0 17.216,4.6572 27.158429,27.158429 0 0 0 29.0423,-28.7806 c 0,-24.9083 -30.4028,-25.8503 -30.4028,-40.9208 a 8.948153,8.948153 0 0 1 9.9947,-9.0528 24.280368,24.280368 0 0 1 14.652,5.9654"
     id="path22-0"
     style="fill:#ffffff;fill-opacity:1;stroke-width:5.23283815"
     inkscape:connector-curvature="0"
     inkscape:export-filename="G:\Users\suitedoalex\sites\heineken-logo-1.png"
     inkscape:export-xdpi="96"
     inkscape:export-ydpi="96" />
  <path
     class="cls-1"
     d="m 6326.7738,1549.7516 c -90.4234,0.8896 -253.2693,6.1748 -326.1627,8.6342 -22.9722,0.7849 -36.6299,1.7792 -36.6299,1.7792 a 20.931352,20.931352 0 0 0 -17.53,11.8785 c -1.7269,4.0816 -2.8781,7.9016 -2.8781,7.9016 0,0 -1.3082,3.7676 -2.3024,8.1109 a 20.931352,20.931352 0 0 0 7.012,19.8848 c 0,0 10.4657,8.8958 28.6759,23.0768 57.5612,44.8454 186.1321,144.7926 258.7639,198.8478 -27.1061,86.2895 -72.4225,242.8037 -92.5689,312.8714 -6.3318,22.0826 -9.6285,35.4787 -9.6285,35.4787 a 20.931352,20.931352 0 0 0 5.9131,20.3557 c 3.3491,2.9304 6.6458,5.2328 6.6458,5.2328 0,0 3.192,2.4595 7.012,4.7096 a 20.931352,20.931352 0 0 0 20.9313,-0.6803 c 0,0 11.7216,-7.2736 30.7691,-20.1464 60.3869,-40.8161 195.2372,-132.2862 268.9679,-184.7192 73.6783,52.3284 208.5286,143.9031 268.9155,184.7192 19.0475,12.8728 30.7691,20.1464 30.7691,20.1464 a 20.931352,20.931352 0 0 0 20.9314,0.6803 82.992811,82.992811 0 0 0 7.012,-4.7096 c 0,0 3.2966,-2.2501 6.6457,-5.2328 a 20.931352,20.931352 0 0 0 5.9131,-20.3557 c 0,0 -3.2967,-13.3961 -9.6808,-35.4787 -20.1464,-70.0677 -65.4628,-226.5819 -92.5689,-312.8714 72.6318,-53.8982 201.255,-153.8977 258.7639,-198.8478 18.1056,-14.1287 28.6759,-23.0768 28.6759,-23.0768 a 20.931352,20.931352 0 0 0 7.169,-19.9371 c -0.9942,-4.3433 -2.3548,-8.1109 -2.3548,-8.1109 0,0 -1.1512,-3.82 -2.878,-7.954 a 20.931352,20.931352 0 0 0 -17.5301,-11.8785 c 0,0 -13.7623,-1.0466 -36.6298,-1.7792 -72.8935,-2.4594 -235.4777,-7.7446 -326.1628,-8.6341 -28.519,-85.6093 -83.6731,-238.8791 -108.5814,-307.4293 -7.8493,-21.6116 -13.0821,-34.3797 -13.0821,-34.3797 a 20.931352,20.931352 0 0 0 -16.7451,-12.9775 c -4.3432,-0.3139 -8.3725,-0.3139 -8.3725,-0.3139 0,0 -4.0293,0 -8.4249,0.2616 a 20.931352,20.931352 0 0 0 -16.7451,12.9774 c 0,0 -5.2328,12.7682 -13.0821,34.3798 -24.8559,68.5502 -80.2194,221.7677 -109,307.5339 z"
     id="path24-3"
     inkscape:connector-curvature="0"
     style="fill:#ffffff;stroke-width:5.23283815"
     inkscape:export-filename="G:\Users\suitedoalex\sites\heineken-logo-1.png"
     inkscape:export-xdpi="96"
     inkscape:export-ydpi="96" />
  <path
     class="cls-2"
     d="m 6280.3586,1815.3181 -116.2737,357.2982 a 1.517523,1.517523 0 0 0 0.5233,1.6745 c 0,0 0.8373,0.7326 1.7792,1.4129 0.9419,0.6803 1.8838,1.2559 1.8838,1.2559 a 1.517523,1.517523 0 0 0 1.7792,0 l 303.9232,-220.9828 303.9232,220.9828 a 1.517523,1.517523 0 0 0 1.7792,0 c 0,0 0.9942,-0.5756 1.8838,-1.2559 0.8896,-0.6803 1.7792,-1.4129 1.7792,-1.4129 a 1.4651946,1.4651946 0 0 0 0.5232,-1.6745 l -116.2736,-357.3505 304.0802,-220.7211 a 1.517523,1.517523 0 0 0 0.5756,-1.6745 c 0,0 0,-1.0989 -0.6279,-2.1978 -0.628,-1.0989 -0.785,-2.1455 -0.785,-2.1455 a 1.4651946,1.4651946 0 0 0 -1.4128,-1.0465 h -375.7701 l -115.9597,-357.2459 a 1.517523,1.517523 0 0 0 -1.4129,-1.0465 c 0,0 -1.0989,0 -2.3024,0 -1.2036,0 -2.2501,0 -2.2501,0 a 1.517523,1.517523 0 0 0 -1.4652,1.0465 l -115.9597,357.4029 h -375.7701 a 1.517523,1.517523 0 0 0 -1.4652,1.0465 c 0,0 -0.471,1.0466 -0.7849,2.1455 -0.314,1.0989 -0.628,2.1978 -0.628,2.1978 a 1.517523,1.517523 0 0 0 0.5756,1.6745 z"
     id="path26-1"
     inkscape:connector-curvature="0"
     style="fill:#e3000f;stroke-width:5.23283815"
     inkscape:export-filename="G:\Users\suitedoalex\sites\heineken-logo-1.png"
     inkscape:export-xdpi="96"
     inkscape:export-ydpi="96" />
  <path
     class="cls-1"
     d="m 8060.6747,2352.9922 a 76.818062,76.818062 0 1 0 76.8181,76.8704 76.818062,76.818062 0 0 0 -76.8181,-76.8704 z m 0,138.1993 a 61.328861,61.328861 0 1 1 61.1719,-61.3289 61.485846,61.485846 0 0 1 -61.1719,61.3289 z"
     id="path28-6"
     style="fill:#ececec;fill-opacity:1;stroke-width:5.23283815"
     inkscape:connector-curvature="0"
     inkscape:export-filename="G:\Users\suitedoalex\sites\heineken-logo-1.png"
     inkscape:export-xdpi="96"
     inkscape:export-ydpi="96" />
  <path
     class="cls-1"
     d="m 8081.3444,2429.4963 a 21.873263,21.873263 0 0 0 12.4019,-20.9313 c 0,-17.6347 -15.6986,-23.0768 -25.2223,-23.0768 h -39.6126 v 82.7835 h 18.9429 v -32.339 h 7.1166 c 9.5761,0 15.1229,2.5641 17.7917,11.4076 a 160.9621,160.9621 0 0 0 6.8027,20.9314 h 20.6173 a 66.038416,66.038416 0 0 1 -7.6399,-20.1988 23.600099,23.600099 0 0 0 -11.1983,-18.5766 z m -18.1056,-9.9947 h -15.1752 v -19.0475 h 13.3437 c 5.8085,0 12.7681,2.4071 12.7681,9.0528 a 10.099377,10.099377 0 0 1 -10.9366,10.204 z"
     id="path30-1"
     style="fill:#ececec;fill-opacity:1;stroke-width:5.23283815"
     inkscape:connector-curvature="0"
     inkscape:export-filename="G:\Users\suitedoalex\sites\heineken-logo-1.png"
     inkscape:export-xdpi="96"
     inkscape:export-ydpi="96" />
  <path
     class="cls-1"
     d="m 5680.937,2809.0865 c -21.7686,21.8209 -50.0783,43.5372 -77.9169,52.3284 -26.1642,8.4772 -101.1508,15.0182 -123.1811,-47.0956 -4.7618,-13.396 -0.8895,-17.53 11.1983,-20.9313 18.0533,-5.2328 64.6256,-19.0475 113.7619,-37.4671 a 587.64771,587.64771 0 0 0 96.8075,-45.3687 c 22.2919,-14.652 25.6409,-35.2694 15.6985,-57.5613 -31.397,-70.3293 -102.0926,-143.9554 -219.7792,-121.5589 -93.1444,18.0533 -160.3864,102.1451 -160.3864,198.534 0,119.2564 71.8469,189.0101 163.3168,210.6217 84.5627,20.1465 183.9866,-20.9313 226.4773,-89.7955 16.902,-26.5305 -30.6121,-58.0321 -45.9967,-41.7057 z m -211.7729,-93.8771 c -9.1575,-25.2746 -1.8315,-102.6683 40.8161,-117.3202 44.8454,-15.3846 72.4225,7.7446 85.8185,52.9563 5.2329,16.7451 3.8723,34.4321 -1.6221,41.0778 -7.954,9.6284 -22.135,15.4368 -34.9031,19.6754 l -33.5948,10.9367 c -33.0192,11.4599 -48.77,13.71 -56.5146,-7.326 z"
     id="path32-7"
     style="fill:#ececec;fill-opacity:1;stroke-width:5.23283815"
     inkscape:connector-curvature="0"
     inkscape:export-filename="G:\Users\suitedoalex\sites\heineken-logo-1.png"
     inkscape:export-xdpi="96"
     inkscape:export-ydpi="96" />
  <path
     class="cls-1"
     d="m 6776.3793,2809.0865 c -21.7686,21.8209 -50.0783,43.5372 -77.917,52.3284 -26.1642,8.4772 -101.1507,15.0182 -123.181,-47.0956 -4.7619,-13.396 -0.8896,-17.53 11.1983,-20.9313 18.0533,-5.2328 64.6255,-19.0475 113.7619,-37.4671 a 587.54305,587.54305 0 0 0 96.8075,-45.3687 c 22.2919,-14.652 25.6409,-35.2694 15.6985,-57.5613 -31.397,-70.3293 -102.0927,-143.9554 -219.7792,-121.5589 -93.5108,17.844 -160.4911,102.0405 -160.4911,198.3247 0,119.2564 71.8468,189.0101 163.3169,210.6217 84.5103,20.1464 183.9342,-20.9313 226.4772,-89.7955 16.9544,-26.3212 -30.5075,-57.8228 -45.892,-41.4964 z m -211.8253,-93.8771 c -5.2328,-15.1229 -5.2328,-48.8747 5.2328,-76.7134 6.9597,-18.6812 17.3207,-33.2809 35.531,-40.6068 a 57.561218,57.561218 0 0 1 51.7528,1.9361 c 15.6985,9.0528 26.8968,26.8968 34.0134,51.0202 5.2329,16.7451 3.8723,34.4321 -1.5698,41.0778 -7.9539,9.6284 -20.3558,14.4949 -34.9031,19.6754 -14.5472,5.1805 -27.4723,9.3668 -33.5948,11.303 -33.1762,10.4133 -48.7177,13.3437 -56.4623,-7.6923 z"
     id="path34-5"
     style="fill:#ececec;fill-opacity:1;stroke-width:5.23283815"
     inkscape:connector-curvature="0"
     inkscape:export-filename="G:\Users\suitedoalex\sites\heineken-logo-1.png"
     inkscape:export-xdpi="96"
     inkscape:export-ydpi="96" />
  <path
     class="cls-1"
     d="m 7611.4356,2809.0865 c -21.7686,21.8209 -50.0783,43.5372 -77.917,52.3284 -26.1642,8.4772 -101.1507,15.0182 -123.181,-47.0956 -4.7619,-13.396 -0.8896,-17.53 11.1983,-20.9313 18.1056,-5.2328 64.6255,-19.0475 113.7619,-37.4671 a 587.28141,587.28141 0 0 0 96.8075,-45.3687 c 22.2919,-14.652 25.6409,-35.2694 15.6985,-57.5613 -31.397,-70.3293 -102.0927,-143.9554 -219.7792,-121.5589 -93.5108,17.844 -160.4911,102.0405 -160.4911,198.3247 0,119.2564 71.8468,189.0101 163.3168,210.6217 84.5627,20.1464 183.9866,-20.9313 226.4773,-89.7955 16.9544,-26.3212 -30.5598,-57.8228 -45.892,-41.4964 z m -211.8253,-93.8771 c -5.2328,-15.1229 -5.2328,-48.8747 5.2328,-76.7134 6.9597,-18.6812 17.3207,-33.2809 35.531,-40.6068 a 57.561218,57.561218 0 0 1 51.7528,1.9361 c 15.6985,9.0528 26.8968,26.8968 34.0134,51.0202 5.2329,16.7451 3.8723,34.4321 -1.5698,41.0778 -7.9539,9.6284 -20.3558,14.4949 -34.9031,19.6754 -14.5473,5.1805 -27.4724,9.3668 -33.5948,11.303 -33.1762,10.4133 -48.7177,13.3437 -56.4623,-7.6923 z"
     id="path36-9"
     style="fill:#ececec;fill-opacity:1;stroke-width:5.23283815"
     inkscape:connector-curvature="0"
     inkscape:export-filename="G:\Users\suitedoalex\sites\heineken-logo-1.png"
     inkscape:export-xdpi="96"
     inkscape:export-ydpi="96" />
  <path
     class="cls-1"
     d="m 5147.9725,2831.6924 c 0,15.9601 -5.2328,33.4901 -17.373,39.0369 l -26.6875,12.0356 a 10.465676,10.465676 0 0 0 -6.1224,10.9889 24.175712,24.175712 0 0 0 0.3663,3.977 l 3.1397,30.2981 c 1.4129,8.2156 7.012,9.5761 17.9486,9.5761 h 193.3534 c 10.8843,0 16.5358,-1.3605 17.9486,-9.5761 l 3.1397,-30.2981 a 24.385025,24.385025 0 0 0 0.3663,-3.977 10.465676,10.465676 0 0 0 -6.1224,-10.9889 l -26.6875,-12.0356 c -12.2971,-5.4944 -17.373,-23.0245 -17.373,-39.0369 v -334.9018 c 0,-15.9601 5.2328,-33.4901 17.373,-39.0369 l 26.6875,-12.0879 a 10.465676,10.465676 0 0 0 6.1224,-10.989 24.175712,24.175712 0 0 0 -0.3663,-3.9769 l -3.1397,-22.7629 c -1.4128,-8.2155 -7.012,-9.576 -17.9486,-9.576 h -184.1959 c -10.8843,0 -16.5358,1.3605 -17.9486,9.576 l -3.1397,22.7629 a 24.071055,24.071055 0 0 0 -0.3663,3.9769 10.465676,10.465676 0 0 0 6.1224,10.989 l 21.7163,12.0879 c 12.4018,7.1166 13.239,23.0244 13.239,39.0369 v 93.354 a 11.773885,11.773885 0 0 1 -11.6692,12.0355 h -104.6568 a 11.773885,11.773885 0 0 1 -11.7738,-11.7739 v -93.4063 c 0,-15.9601 0.8372,-31.9203 13.239,-39.0369 l 21.7686,-12.0879 a 10.465676,10.465676 0 0 0 6.1225,-10.9889 24.22804,24.22804 0 0 0 -0.3663,-3.977 l -3.1397,-22.7628 c -1.4129,-8.2156 -7.012,-9.5761 -17.9487,-9.5761 h -184.1435 c -10.9367,0 -16.5358,1.3605 -17.9487,9.5761 l -3.1397,22.7628 a 24.175712,24.175712 0 0 0 -0.3663,3.82 10.465676,10.465676 0 0 0 6.1224,10.9889 l 26.6875,12.0879 c 12.2972,5.4945 17.373,23.0245 17.373,39.037 v 334.9017 c 0,15.9601 -5.2328,33.4902 -17.373,39.037 l -26.6875,12.0355 a 10.465676,10.465676 0 0 0 -6.1224,10.9366 24.385025,24.385025 0 0 0 0.3663,3.977 l 3.1397,30.2981 c 1.4129,8.2156 7.012,9.5761 17.9487,9.5761 h 193.0917 c 10.8843,0 16.5358,-1.3605 17.9486,-9.5761 l 3.1397,-30.2981 a 24.280368,24.280368 0 0 0 0.3663,-3.977 10.465676,10.465676 0 0 0 -6.1224,-10.9889 l -26.6875,-12.0356 c -12.3495,-5.4944 -17.373,-23.0245 -17.373,-39.0369 v -136.0538 a 11.773885,11.773885 0 0 1 11.7739,-11.7739 h 104.6568 a 11.773885,11.773885 0 0 1 11.7215,11.7739 z"
     id="path38-4"
     style="fill:#ececec;fill-opacity:1;stroke-width:5.23283815"
     inkscape:connector-curvature="0"
     inkscape:export-filename="G:\Users\suitedoalex\sites\heineken-logo-1.png"
     inkscape:export-xdpi="96"
     inkscape:export-ydpi="96" />
  <ellipse
     class="cls-1"
     cx="5839.8584"
     cy="2455.0322"
     rx="69.701401"
     ry="67.294296"
     id="ellipse40-6"
     style="fill:#ececec;fill-opacity:1;stroke-width:5.23283815"
     inkscape:export-filename="G:\Users\suitedoalex\sites\heineken-logo-1.png"
     inkscape:export-xdpi="96"
     inkscape:export-ydpi="96" />
  <path
     class="cls-1"
     d="m 5763.5635,2937.5527 c -10.4657,0 -15.6985,-1.3082 -17.216,-9.2098 l -3.0351,-30.1935 a 20.931352,20.931352 0 0 1 0,-3.82 10.465676,10.465676 0 0 1 5.7562,-10.4656 l 20.9313,-11.5646 c 11.5123,-5.5468 16.6404,-22.0826 16.6404,-37.4148 v -191.1032 c 0,-15.9602 -2.721,-36.6299 -16.7974,-43.4326 l -13.2914,-7.6399 a 10.465676,10.465676 0 0 1 -6.1224,-10.989 24.071055,24.071055 0 0 1 0.3663,-3.977 l 3.1397,-22.7106 c 1.4129,-8.2679 7.012,-9.5761 17.9486,-9.5761 h 130.1407 a 11.773885,11.773885 0 0 1 11.7739,11.7739 v 277.7068 c 0,15.3322 5.2328,31.868 16.6404,37.4148 l 20.9314,11.5646 a 10.465676,10.465676 0 0 1 5.7561,10.4657 20.931352,20.931352 0 0 1 0,3.8199 l -2.9827,30.1935 c -1.3606,7.9016 -6.7504,9.2098 -17.2161,9.2098 z"
     id="path42-3"
     style="fill:#ececec;fill-opacity:1;stroke-width:5.23283815"
     inkscape:connector-curvature="0"
     inkscape:export-filename="G:\Users\suitedoalex\sites\heineken-logo-1.png"
     inkscape:export-xdpi="96"
     inkscape:export-ydpi="96" />
  <path
     class="cls-1"
     d="m 6158.5381,2565.5501 20.5651,-9.9947 c 26.1642,-12.2448 77.289,-34.2228 119.5703,-20.9313 36.6299,11.6692 68.0269,38.3043 68.0269,108.1105 v 211.459 c 0,9.0004 0.4186,12.7158 4.6049,15.0182 5.5991,3.0874 15.3845,-6.1224 24.7513,-10.9366 9.3668,-4.8142 14.7043,0.8372 20.4604,7.2213 5.2329,5.5991 11.146,13.5007 6.2271,23.8617 -15.6985,32.7053 -50.6015,51.5435 -91.5747,51.5435 -38.6706,0 -87.964,-22.1872 -87.964,-80.1671 v -203.1911 c 0,-31.1354 -22.5535,-41.8627 -40.0835,-39.7172 -26.4782,3.2967 -45.735,25.4316 -45.735,64.8872 v 152.1709 c 0,15.3322 5.2328,31.868 16.6404,37.4148 l 20.9314,11.5646 a 10.465676,10.465676 0 0 1 5.7561,10.4656 20.931352,20.931352 0 0 1 0,3.82 l -3.0351,30.1935 c -1.3605,7.9016 -6.7503,9.2098 -17.216,9.2098 H 6007.78 c -10.4656,0 -15.6985,-1.3082 -17.216,-9.2098 l -2.9827,-30.1935 a 20.931352,20.931352 0 0 1 0,-3.82 10.465676,10.465676 0 0 1 5.7561,-10.4656 l 20.9314,-11.5646 c 11.5122,-5.5468 16.6404,-22.0826 16.6404,-37.4148 v -191.1032 c 0,-15.9602 -2.7211,-36.6299 -16.7451,-43.4326 l -13.2914,-7.6399 a 10.465676,10.465676 0 0 1 -6.1224,-10.989 23.390786,23.390786 0 0 1 0.3663,-3.977 l 3.1397,-22.7106 c 1.4128,-8.2679 7.012,-9.5761 17.9486,-9.5761 h 122.9194 a 16.274126,16.274126 0 0 1 16.2218,11.7739 z"
     id="path44-9"
     style="fill:#ececec;fill-opacity:1;stroke-width:5.23283815"
     inkscape:connector-curvature="0"
     inkscape:export-filename="G:\Users\suitedoalex\sites\heineken-logo-1.png"
     inkscape:export-xdpi="96"
     inkscape:export-ydpi="96" />
  <path
     class="cls-1"
     d="m 7845.8667,2565.5501 20.5651,-9.9947 c 26.1642,-12.2448 77.289,-34.2228 119.5703,-20.9313 36.6299,11.6692 68.0269,38.3043 68.0269,108.1105 v 211.459 c 0,9.0004 0.4186,12.7158 4.6049,15.0182 5.5991,3.0874 15.4369,-6.1224 24.7513,-10.9366 9.3145,-4.8142 14.7043,0.8372 20.4604,7.2213 5.2329,5.5991 11.146,13.5007 6.1748,23.8617 -15.6985,32.7053 -50.6016,51.5435 -91.5747,51.5435 -38.6707,0 -87.964,-22.1872 -87.964,-80.1671 v -203.1911 c 0,-31.1354 -22.5535,-41.8627 -40.0835,-39.7172 -26.4782,3.2967 -45.735,25.4316 -45.735,64.8872 v 152.1709 c 0,15.3322 5.2328,31.868 16.6404,37.4148 l 20.9313,11.5646 a 10.465676,10.465676 0 0 1 5.7562,10.4656 21.297651,21.297651 0 0 1 0,3.82 l -3.0351,30.1935 c -1.3082,7.9016 -6.7503,9.2098 -17.216,9.2098 h -172.6837 c -10.4656,0 -15.6985,-1.3082 -17.216,-9.2098 l -2.9827,-30.1935 a 20.931352,20.931352 0 0 1 0,-3.82 10.465676,10.465676 0 0 1 5.7038,-10.4656 l 20.9313,-11.5646 c 11.5123,-5.5468 16.6404,-22.0826 16.6404,-37.4148 v -191.1032 c 0,-15.9602 -2.721,-36.6299 -16.745,-43.4326 l -13.2914,-7.6399 a 10.465676,10.465676 0 0 1 -6.1225,-10.989 24.280368,24.280368 0 0 1 0.3663,-3.977 l 3.1397,-22.7106 c 1.4129,-8.2679 7.012,-9.5761 17.9487,-9.5761 h 122.1867 a 16.326455,16.326455 0 0 1 16.2218,11.7739 z"
     id="path46-3"
     style="fill:#ececec;fill-opacity:1;stroke-width:5.23283815"
     inkscape:connector-curvature="0"
     inkscape:export-filename="G:\Users\suitedoalex\sites\heineken-logo-1.png"
     inkscape:export-xdpi="96"
     inkscape:export-ydpi="96" />
  <path
     class="cls-1"
     d="m 7219.7577,2840.1172 a 85.242931,85.242931 0 0 0 31.9203,32.1297 l 20.9313,11.5645 a 10.465676,10.465676 0 0 1 5.7561,10.4657 21.506964,21.506964 0 0 1 0,3.82 l -2.9827,30.1935 c -1.3605,7.9015 -6.7503,9.2097 -17.216,9.2097 h -104.8661 c -17.844,0 -19.2045,-5.2328 -27.2631,-19.7277 l -87.5454,-159.3923 -32.8622,31.397 v 44.8455 c 0,15.3322 7.2213,31.397 19.1522,37.4147 l 20.9314,11.5646 a 10.465676,10.465676 0 0 1 5.7561,10.4657 20.460397,20.460397 0 0 1 0,3.82 l -3.0351,30.1934 c -1.3605,7.9016 -6.7503,9.2098 -17.216,9.2098 h -172.6837 c -10.4656,0 -15.6985,-1.3082 -17.216,-9.2098 l -2.9827,-30.1934 a 20.094098,20.094098 0 0 1 0,-3.82 10.465676,10.465676 0 0 1 5.7561,-10.4657 l 20.9314,-11.5646 c 11.5122,-5.5468 16.6404,-22.0825 16.6404,-37.4147 V 2492.709 c 0,-15.3322 -4.7619,-31.397 -16.6404,-37.4148 l -20.9314,-11.5645 a 10.465676,10.465676 0 0 1 -5.7561,-10.4657 19.989441,19.989441 0 0 1 0,-3.82 l 2.9827,-21.507 c 1.3605,-7.9015 6.7504,-9.2098 17.216,-9.2098 h 125.3265 a 22.29189,22.29189 0 0 1 22.2919,22.3443 v 259.6012 l 55.7297,-50.2876 c 7.9539,-6.855 20.9314,-18.2626 26.1642,-23.2861 5.2329,-5.0236 6.1224,-12.6112 -1.0989,-15.6986 l -19.6754,-8.8958 a 9.4191084,9.4191084 0 0 1 -5.5992,-9.9948 21.873263,21.873263 0 0 1 0.3663,-3.6107 l 2.8781,-27.577 c 1.2559,-7.483 6.384,-8.7389 16.3264,-8.7389 h 149.3976 c 9.9423,0 15.0705,1.2036 16.3264,8.7389 l 2.8781,27.577 a 33.804133,33.804133 0 0 1 0.3139,3.6107 c 0.314,5.9655 -6.7503,8.8436 -11.0936,10.8321 a 106.59291,106.59291 0 0 0 -20.3557,8.6342 204.08068,204.08068 0 0 0 -33.0716,25.4839 l -57.8751,55.5204 z"
     id="path48-4"
     style="fill:#ececec;fill-opacity:1;stroke-width:5.23283815"
     inkscape:connector-curvature="0"
     inkscape:export-filename="G:\Users\suitedoalex\sites\heineken-logo-1.png"
     inkscape:export-xdpi="96"
     inkscape:export-ydpi="96" />
  <path
     class="cls-1"
     d="m 2650.5575,2084.2355 v -2.5641 h -17.1637 a 22.762845,22.762845 0 0 0 24.2281,25.6409 c 16.9544,0 27.2107,-10.4657 27.2107,-27.2631 0,-9.7854 -3.9246,-19.2045 -14.1286,-21.7163 v -0.3139 c 8.9481,-3.5584 11.3029,-12.9251 11.3029,-21.6116 0,-14.652 -8.5295,-24.0188 -23.3385,-24.0188 -16.7974,0 -22.0825,12.2972 -21.5593,27.1585 h 15.6986 v -1.9362 c 0,-4.0293 0.8372,-9.5761 6.1224,-9.5761 5.2851,0 6.2794,5.2328 6.2794,9.3668 0,10.4657 -4.134,12.1925 -14.0764,12.1925 v 15.6985 c 10.4657,-0.3663 13.8147,2.5118 13.8147,12.8205 0,5.2328 -0.4709,12.9774 -7.9015,12.9774 a 6.8550178,6.8550178 0 0 1 -6.8551,-7.169"
     id="path8"
     style="fill:#007125;fill-opacity:1;stroke-width:5.23283815"
     inkscape:connector-curvature="0"
     inkscape:export-filename="G:\Users\suitedoalex\sites\heineken-logo-4.png"
     inkscape:export-xdpi="11.623726"
     inkscape:export-ydpi="11.623726" />
  <polygon
     class="cls-1"
     points="415.71,160.79 415.71,163.81 420.44,163.81 414.95,178.38 418.59,178.38 425.21,160.79 "
     id="polygon10"
     style="fill:#007125;fill-opacity:1"
     transform="matrix(5.232838,0,0,5.232838,396.30331,1172.4135)"
     inkscape:export-filename="G:\Users\suitedoalex\sites\heineken-logo-4.png"
     inkscape:export-xdpi="11.623726"
     inkscape:export-ydpi="11.623726" />
  <path
     class="cls-1"
     d="m 2533.185,2056.2398 v 0 a 19.256844,19.256844 0 0 0 12.6111,-19.4662 23.0245,23.0245 0 1 0 -46.049,0 19.518486,19.518486 0 0 0 12.5065,19.4139 v 0.3139 c -11.3552,3.82 -16.0125,12.4542 -16.0125,24.3327 a 26.42585,26.42585 0 1 0 52.8517,0 c 0,-11.5645 -4.3432,-20.9313 -15.6985,-24.3327 m -10.7273,-29.6178 c 4.9712,0 5.5991,6.384 5.5991,9.7854 0,3.4013 0,10.4657 -5.5991,10.4657 -4.5526,0 -5.2329,-7.0644 -5.2329,-10.4657 0,-3.4014 0.7326,-9.6808 5.2329,-9.6808 m 0,64.7302 c -6.3318,0 -7.64,-8.3202 -7.64,-12.9774 0,-4.6572 1.3082,-13.3437 7.5353,-13.3437 6.2271,0 8.0586,8.7388 8.0586,13.3437 0,4.6049 -1.7792,12.9774 -7.9539,12.9774"
     id="path12"
     style="fill:#007125;fill-opacity:1;stroke-width:5.23283815"
     inkscape:connector-curvature="0"
     inkscape:export-filename="G:\Users\suitedoalex\sites\heineken-logo-4.png"
     inkscape:export-xdpi="11.623726"
     inkscape:export-ydpi="11.623726" />
  <polygon
     class="cls-1"
     points="391.49,160.79 391.49,163.81 393.17,163.81 393.17,178.38 396.53,178.38 396.53,160.79 "
     id="polygon14"
     style="fill:#007125;fill-opacity:1"
     transform="matrix(5.232838,0,0,5.232838,396.30331,1172.4135)"
     inkscape:export-filename="G:\Users\suitedoalex\sites\heineken-logo-4.png"
     inkscape:export-xdpi="11.623726"
     inkscape:export-ydpi="11.623726" />
  <polygon
     class="cls-1"
     points="192.11,160.79 192.11,178.38 199.84,178.38 199.84,175.1 195.91,175.1 195.91,171.14 199.33,171.14 199.33,167.88 195.91,167.88 195.91,164.05 199.81,164.05 199.81,160.79 "
     id="polygon16"
     style="fill:#007125;fill-opacity:1"
     transform="matrix(5.232838,0,0,5.232838,396.30331,1172.4135)"
     inkscape:export-filename="G:\Users\suitedoalex\sites\heineken-logo-4.png"
     inkscape:export-xdpi="11.623726"
     inkscape:export-ydpi="11.623726" />
  <path
     class="cls-1"
     d="m 1619.9501,2084.1308 a 11.512244,11.512244 0 0 0 -11.7216,11.5123 11.669229,11.669229 0 0 0 11.7216,11.6692 11.459915,11.459915 0 0 0 11.3552,-11.6692 11.355258,11.355258 0 0 0 -11.3552,-11.5123"
     id="path18"
     style="fill:#007125;fill-opacity:1;stroke-width:5.23283815"
     inkscape:connector-curvature="0"
     inkscape:export-filename="G:\Users\suitedoalex\sites\heineken-logo-4.png"
     inkscape:export-xdpi="11.623726"
     inkscape:export-ydpi="11.623726" />
  <polygon
     class="cls-1"
     points="226.02,178.38 226.02,164.05 229.02,164.05 229.02,160.79 219.2,160.79 219.2,164.05 222.19,164.05 222.19,178.38 "
     id="polygon20"
     style="fill:#007125;fill-opacity:1"
     transform="matrix(5.232838,0,0,5.232838,396.30331,1172.4135)"
     inkscape:export-filename="G:\Users\suitedoalex\sites\heineken-logo-4.png"
     inkscape:export-xdpi="11.623726"
     inkscape:export-ydpi="11.623726" />
  <path
     class="cls-1"
     d="m 1515.5026,2034.5235 v -17.7916 a 38.879986,38.879986 0 0 0 -17.8439,-4.3433 25.274608,25.274608 0 0 0 -26.1642,27.0015 c 0,13.2914 7.012,20.1987 18.5766,27.2107 5.5468,3.8723 11.8262,6.3841 11.8262,13.3961 a 10.465676,10.465676 0 0 1 -11.6169,10.0994 26.16419,26.16419 0 0 1 -15.0706,-4.9712 v 17.4777 a 34.118104,34.118104 0 0 0 17.216,4.6572 27.158429,27.158429 0 0 0 29.0423,-28.7806 c 0,-24.9083 -30.4028,-25.8503 -30.4028,-40.9208 a 8.948153,8.948153 0 0 1 9.9947,-9.0528 24.280368,24.280368 0 0 1 14.652,5.9654"
     id="path22"
     style="fill:#007125;fill-opacity:1;stroke-width:5.23283815"
     inkscape:connector-curvature="0"
     inkscape:export-filename="G:\Users\suitedoalex\sites\heineken-logo-4.png"
     inkscape:export-xdpi="11.623726"
     inkscape:export-ydpi="11.623726" />
  <path
     class="cls-1"
     d="m 1889.0749,1527.6185 c -90.4234,0.8896 -253.2693,6.1748 -326.1627,8.6342 -22.9722,0.7849 -36.6299,1.7792 -36.6299,1.7792 a 20.931352,20.931352 0 0 0 -17.53,11.8785 c -1.7269,4.0816 -2.8781,7.9016 -2.8781,7.9016 0,0 -1.3082,3.7676 -2.3024,8.1109 a 20.931352,20.931352 0 0 0 7.012,19.8848 c 0,0 10.4657,8.8958 28.6759,23.0768 57.5612,44.8454 186.1321,144.7926 258.7639,198.8478 -27.1061,86.2895 -72.4225,242.8037 -92.5689,312.8714 -6.3318,22.0826 -9.6285,35.4787 -9.6285,35.4787 a 20.931352,20.931352 0 0 0 5.9131,20.3557 c 3.3491,2.9304 6.6458,5.2328 6.6458,5.2328 0,0 3.192,2.4595 7.012,4.7096 a 20.931352,20.931352 0 0 0 20.9313,-0.6803 c 0,0 11.7216,-7.2736 30.7691,-20.1464 60.3869,-40.8161 195.2372,-132.2862 268.9679,-184.7192 73.6783,52.3284 208.5286,143.9031 268.9155,184.7192 19.0475,12.8728 30.7691,20.1464 30.7691,20.1464 a 20.931352,20.931352 0 0 0 20.9314,0.6803 82.992811,82.992811 0 0 0 7.012,-4.7096 c 0,0 3.2966,-2.2501 6.6457,-5.2328 a 20.931352,20.931352 0 0 0 5.9131,-20.3557 c 0,0 -3.2967,-13.3961 -9.6808,-35.4787 -20.1464,-70.0677 -65.4628,-226.5819 -92.5689,-312.8714 72.6318,-53.8982 201.255,-153.8977 258.7639,-198.8478 18.1056,-14.1287 28.6759,-23.0768 28.6759,-23.0768 a 20.931352,20.931352 0 0 0 7.169,-19.9371 c -0.9942,-4.3433 -2.3548,-8.1109 -2.3548,-8.1109 0,0 -1.1512,-3.82 -2.878,-7.954 a 20.931352,20.931352 0 0 0 -17.5301,-11.8785 c 0,0 -13.7623,-1.0466 -36.6298,-1.7792 -72.8935,-2.4594 -235.4777,-7.7446 -326.1628,-8.6341 -28.519,-85.6093 -83.6731,-238.8791 -108.5814,-307.4293 -7.8493,-21.6116 -13.0821,-34.3797 -13.0821,-34.3797 a 20.931352,20.931352 0 0 0 -16.7451,-12.9775 c -4.3432,-0.3139 -8.3725,-0.3139 -8.3725,-0.3139 0,0 -4.0293,0 -8.4249,0.2616 a 20.931352,20.931352 0 0 0 -16.7451,12.9774 c 0,0 -5.2328,12.7682 -13.0821,34.3798 -24.8559,68.5502 -80.2194,221.7677 -109,307.5339 z"
     id="path24"
     inkscape:connector-curvature="0"
     style="fill:#ffffff;stroke-width:5.23283815"
     inkscape:export-filename="G:\Users\suitedoalex\sites\heineken-logo-4.png"
     inkscape:export-xdpi="11.623726"
     inkscape:export-ydpi="11.623726" />
  <path
     class="cls-2"
     d="m 1842.6597,1793.185 -116.2737,357.2982 a 1.517523,1.517523 0 0 0 0.5233,1.6745 c 0,0 0.8373,0.7326 1.7792,1.4129 0.9419,0.6803 1.8838,1.2559 1.8838,1.2559 a 1.517523,1.517523 0 0 0 1.7792,0 l 303.9232,-220.9828 303.9232,220.9828 a 1.517523,1.517523 0 0 0 1.7792,0 c 0,0 0.9942,-0.5756 1.8838,-1.2559 0.8896,-0.6803 1.7792,-1.4129 1.7792,-1.4129 a 1.4651946,1.4651946 0 0 0 0.5232,-1.6745 l -116.2736,-357.3505 304.0802,-220.7211 a 1.517523,1.517523 0 0 0 0.5756,-1.6745 c 0,0 0,-1.0989 -0.6279,-2.1978 -0.628,-1.0989 -0.785,-2.1455 -0.785,-2.1455 a 1.4651946,1.4651946 0 0 0 -1.4128,-1.0465 H 2155.9497 L 2039.99,1208.1014 a 1.517523,1.517523 0 0 0 -1.4129,-1.0465 c 0,0 -1.0989,0 -2.3024,0 -1.2036,0 -2.2501,0 -2.2501,0 a 1.517523,1.517523 0 0 0 -1.4652,1.0465 l -115.9597,357.4029 h -375.7701 a 1.517523,1.517523 0 0 0 -1.4652,1.0465 c 0,0 -0.471,1.0466 -0.7849,2.1455 -0.314,1.0989 -0.628,2.1978 -0.628,2.1978 a 1.517523,1.517523 0 0 0 0.5756,1.6745 z"
     id="path26"
     inkscape:connector-curvature="0"
     style="fill:#e3000f;stroke-width:5.23283815"
     inkscape:export-filename="G:\Users\suitedoalex\sites\heineken-logo-4.png"
     inkscape:export-xdpi="11.623726"
     inkscape:export-ydpi="11.623726" />
  <path
     class="cls-1"
     d="m 3622.9758,2330.8591 a 76.818062,76.818062 0 1 0 76.8181,76.8704 76.818062,76.818062 0 0 0 -76.8181,-76.8704 z m 0,138.1993 a 61.328861,61.328861 0 1 1 61.1719,-61.3289 61.485846,61.485846 0 0 1 -61.1719,61.3289 z"
     id="path28"
     style="fill:#007125;fill-opacity:1;stroke-width:5.23283815"
     inkscape:connector-curvature="0"
     inkscape:export-filename="G:\Users\suitedoalex\sites\heineken-logo-4.png"
     inkscape:export-xdpi="11.623726"
     inkscape:export-ydpi="11.623726" />
  <path
     class="cls-1"
     d="m 3643.6455,2407.3632 a 21.873263,21.873263 0 0 0 12.4019,-20.9313 c 0,-17.6347 -15.6986,-23.0768 -25.2223,-23.0768 h -39.6126 v 82.7835 h 18.9429 v -32.339 h 7.1166 c 9.5761,0 15.1229,2.5641 17.7917,11.4076 a 160.9621,160.9621 0 0 0 6.8027,20.9314 h 20.6173 a 66.038416,66.038416 0 0 1 -7.6399,-20.1988 23.600099,23.600099 0 0 0 -11.1983,-18.5766 z m -18.1056,-9.9947 h -15.1752 v -19.0475 h 13.3437 c 5.8085,0 12.7681,2.4071 12.7681,9.0528 a 10.099377,10.099377 0 0 1 -10.9366,10.204 z"
     id="path30"
     style="fill:#007125;fill-opacity:1;stroke-width:5.23283815"
     inkscape:connector-curvature="0"
     inkscape:export-filename="G:\Users\suitedoalex\sites\heineken-logo-4.png"
     inkscape:export-xdpi="11.623726"
     inkscape:export-ydpi="11.623726" />
  <path
     class="cls-1"
     d="m 1243.2381,2786.9533 c -21.7686,21.8209 -50.0783,43.5372 -77.9169,52.3284 -26.1642,8.4772 -101.1508,15.0182 -123.1811,-47.0956 -4.7618,-13.396 -0.8895,-17.53 11.1983,-20.9313 18.0533,-5.2328 64.6256,-19.0475 113.7619,-37.4671 a 587.64771,587.64771 0 0 0 96.8075,-45.3687 c 22.2919,-14.652 25.6409,-35.2694 15.6985,-57.5613 -31.397,-70.3293 -102.0926,-143.9553 -219.7792,-121.5588 -93.14444,18.0533 -160.38641,102.145 -160.38641,198.5339 0,119.2564 71.84686,189.0101 163.31681,210.6217 84.5627,20.1465 183.9866,-20.9313 226.4773,-89.7955 16.902,-26.5305 -30.6121,-58.0321 -45.9967,-41.7057 z m -211.7729,-93.8771 c -9.1575,-25.2746 -1.8315,-102.6683 40.8161,-117.3202 44.8454,-15.3846 72.4225,7.7446 85.8185,52.9563 5.2329,16.7451 3.8723,34.4321 -1.6221,41.0778 -7.954,9.6284 -22.135,15.4368 -34.9031,19.6754 l -33.5948,10.9367 c -33.0192,11.4599 -48.77,13.71 -56.5146,-7.326 z"
     id="path32"
     style="fill:#007125;fill-opacity:1;stroke-width:5.23283815"
     inkscape:connector-curvature="0"
     inkscape:export-filename="G:\Users\suitedoalex\sites\heineken-logo-4.png"
     inkscape:export-xdpi="11.623726"
     inkscape:export-ydpi="11.623726" />
  <path
     class="cls-1"
     d="m 2338.6804,2786.9533 c -21.7686,21.8209 -50.0783,43.5372 -77.917,52.3284 -26.1642,8.4772 -101.1507,15.0182 -123.181,-47.0956 -4.7619,-13.396 -0.8896,-17.53 11.1983,-20.9313 18.0533,-5.2328 64.6255,-19.0475 113.7619,-37.4671 a 587.54305,587.54305 0 0 0 96.8075,-45.3687 c 22.2919,-14.652 25.6409,-35.2694 15.6985,-57.5613 -31.397,-70.3293 -102.0927,-143.9553 -219.7792,-121.5588 -93.5108,17.844 -160.4911,102.0404 -160.4911,198.3246 0,119.2564 71.8468,189.0101 163.3169,210.6217 84.5103,20.1464 183.9342,-20.9313 226.4772,-89.7955 16.9544,-26.3212 -30.5075,-57.8228 -45.892,-41.4964 z m -211.8253,-93.8771 c -5.2328,-15.1229 -5.2328,-48.8747 5.2328,-76.7134 6.9597,-18.6812 17.3207,-33.2809 35.531,-40.6068 a 57.561218,57.561218 0 0 1 51.7528,1.9361 c 15.6985,9.0528 26.8968,26.8968 34.0134,51.0202 5.2329,16.7451 3.8723,34.4321 -1.5698,41.0778 -7.9539,9.6284 -20.3558,14.4949 -34.9031,19.6754 -14.5472,5.1805 -27.4723,9.3668 -33.5948,11.303 -33.1762,10.4133 -48.7177,13.3437 -56.4623,-7.6923 z"
     id="path34"
     style="fill:#007125;fill-opacity:1;stroke-width:5.23283815"
     inkscape:connector-curvature="0"
     inkscape:export-filename="G:\Users\suitedoalex\sites\heineken-logo-4.png"
     inkscape:export-xdpi="11.623726"
     inkscape:export-ydpi="11.623726" />
  <path
     class="cls-1"
     d="m 3173.7367,2786.9533 c -21.7686,21.8209 -50.0783,43.5372 -77.917,52.3284 -26.1642,8.4772 -101.1507,15.0182 -123.181,-47.0956 -4.7619,-13.396 -0.8896,-17.53 11.1983,-20.9313 18.1056,-5.2328 64.6255,-19.0475 113.7619,-37.4671 a 587.28141,587.28141 0 0 0 96.8075,-45.3687 c 22.2919,-14.652 25.6409,-35.2694 15.6985,-57.5613 -31.397,-70.3293 -102.0927,-143.9553 -219.7792,-121.5588 -93.5108,17.844 -160.4911,102.0404 -160.4911,198.3246 0,119.2564 71.8468,189.0101 163.3168,210.6217 84.5627,20.1464 183.9866,-20.9313 226.4773,-89.7955 16.9544,-26.3212 -30.5598,-57.8228 -45.892,-41.4964 z m -211.8253,-93.8771 c -5.2328,-15.1229 -5.2328,-48.8747 5.2328,-76.7134 6.9597,-18.6812 17.3207,-33.2809 35.531,-40.6068 a 57.561218,57.561218 0 0 1 51.7528,1.9361 c 15.6985,9.0528 26.8968,26.8968 34.0134,51.0202 5.2329,16.7451 3.8723,34.4321 -1.5698,41.0778 -7.9539,9.6284 -20.3558,14.4949 -34.9031,19.6754 -14.5473,5.1805 -27.4724,9.3668 -33.5948,11.303 -33.1762,10.4133 -48.7177,13.3437 -56.4623,-7.6923 z"
     id="path36"
     style="fill:#007125;fill-opacity:1;stroke-width:5.23283815"
     inkscape:connector-curvature="0"
     inkscape:export-filename="G:\Users\suitedoalex\sites\heineken-logo-4.png"
     inkscape:export-xdpi="11.623726"
     inkscape:export-ydpi="11.623726" />
  <path
     class="cls-1"
     d="m 710.27359,2809.5592 c 0,15.9601 -5.23283,33.4901 -17.37302,39.0369 l -26.68747,12.0356 a 10.465676,10.465676 0 0 0 -6.12242,10.9889 24.175712,24.175712 0 0 0 0.3663,3.977 l 3.1397,30.2981 c 1.41286,8.2156 7.012,9.5761 17.94863,9.5761 h 193.35337 c 10.8843,0 16.53576,-1.3605 17.94863,-9.5761 l 3.1397,-30.2981 a 24.385025,24.385025 0 0 0 0.3663,-3.977 10.465676,10.465676 0 0 0 -6.12242,-10.9889 l -26.68747,-12.0356 c -12.29717,-5.4944 -17.37302,-23.0245 -17.37302,-39.0369 v -334.9017 c 0,-15.9601 5.23283,-33.4901 17.37302,-39.0369 l 26.68747,-12.0879 a 10.465676,10.465676 0 0 0 6.12242,-10.989 24.175712,24.175712 0 0 0 -0.3663,-3.9769 l -3.1397,-22.7629 c -1.41287,-8.2155 -7.012,-9.576 -17.94863,-9.576 h -184.1959 c -10.8843,0 -16.53577,1.3605 -17.94864,9.576 l -3.1397,22.7629 a 24.071055,24.071055 0 0 0 -0.3663,3.9769 10.465676,10.465676 0 0 0 6.12242,10.989 l 21.71628,12.0879 c 12.40183,7.1166 13.23908,23.0244 13.23908,39.0369 v 93.3539 a 11.773885,11.773885 0 0 1 -11.66923,12.0355 H 593.99994 a 11.773885,11.773885 0 0 1 -11.77388,-11.7739 v -93.4062 c 0,-15.9601 0.83725,-31.9203 13.23908,-39.0369 l 21.76859,-12.0879 a 10.465676,10.465676 0 0 0 6.12242,-10.9889 24.22804,24.22804 0 0 0 -0.36629,-3.977 l -3.13971,-22.7628 c -1.41286,-8.2156 -7.012,-9.5761 -17.94863,-9.5761 H 417.75795 c -10.93663,0 -16.53577,1.3605 -17.94864,9.5761 l -3.1397,22.7628 a 24.175712,24.175712 0 0 0 -0.3663,3.82 10.465676,10.465676 0 0 0 6.12242,10.9889 l 26.68748,12.0879 c 12.29717,5.4945 17.37302,23.0245 17.37302,39.037 v 334.9016 c 0,15.9601 -5.23284,33.4902 -17.37302,39.037 l -26.68748,12.0355 a 10.465676,10.465676 0 0 0 -6.12242,10.9366 24.385025,24.385025 0 0 0 0.3663,3.977 l 3.1397,30.2981 c 1.41287,8.2156 7.01201,9.5761 17.94864,9.5761 h 193.09172 c 10.8843,0 16.53577,-1.3605 17.94864,-9.5761 l 3.1397,-30.2981 a 24.280368,24.280368 0 0 0 0.3663,-3.977 10.465676,10.465676 0 0 0 -6.12242,-10.9889 l -26.68748,-12.0356 c -12.34948,-5.4944 -17.37301,-23.0245 -17.37301,-39.0369 v -136.0538 a 11.773885,11.773885 0 0 1 11.77389,-11.7739 h 104.65675 a 11.773885,11.773885 0 0 1 11.72155,11.7739 z"
     id="path38"
     style="fill:#007125;fill-opacity:1;stroke-width:5.23283815"
     inkscape:connector-curvature="0"
     inkscape:export-filename="G:\Users\suitedoalex\sites\heineken-logo-4.png"
     inkscape:export-xdpi="11.623726"
     inkscape:export-ydpi="11.623726" />
  <ellipse
     class="cls-1"
     cx="1402.1595"
     cy="2432.8992"
     rx="69.701401"
     ry="67.294296"
     id="ellipse40"
     style="fill:#007125;fill-opacity:1;stroke-width:5.23283815"
     inkscape:export-filename="G:\Users\suitedoalex\sites\heineken-logo-4.png"
     inkscape:export-xdpi="11.623726"
     inkscape:export-ydpi="11.623726" />
  <path
     class="cls-1"
     d="m 1325.8646,2915.4195 c -10.4657,0 -15.6985,-1.3082 -17.216,-9.2098 l -3.0351,-30.1935 a 20.931352,20.931352 0 0 1 0,-3.82 10.465676,10.465676 0 0 1 5.7562,-10.4656 l 20.9313,-11.5646 c 11.5123,-5.5468 16.6404,-22.0826 16.6404,-37.4148 V 2621.648 c 0,-15.9602 -2.721,-36.6299 -16.7974,-43.4326 l -13.2914,-7.6399 a 10.465676,10.465676 0 0 1 -6.1224,-10.989 24.071055,24.071055 0 0 1 0.3663,-3.977 l 3.1397,-22.7105 c 1.4129,-8.2679 7.012,-9.5761 17.9486,-9.5761 h 130.1407 a 11.773885,11.773885 0 0 1 11.7739,11.7739 v 277.7067 c 0,15.3322 5.2328,31.868 16.6404,37.4148 l 20.9314,11.5646 a 10.465676,10.465676 0 0 1 5.7561,10.4657 20.931352,20.931352 0 0 1 0,3.8199 l -2.9827,30.1935 c -1.3606,7.9016 -6.7504,9.2098 -17.2161,9.2098 z"
     id="path42"
     style="fill:#007125;fill-opacity:1;stroke-width:5.23283815"
     inkscape:connector-curvature="0"
     inkscape:export-filename="G:\Users\suitedoalex\sites\heineken-logo-4.png"
     inkscape:export-xdpi="11.623726"
     inkscape:export-ydpi="11.623726" />
  <path
     class="cls-1"
     d="m 1720.8392,2543.417 20.5651,-9.9947 c 26.1642,-12.2448 77.289,-34.2228 119.5703,-20.9313 36.6299,11.6692 68.0269,38.3043 68.0269,108.1104 v 211.459 c 0,9.0004 0.4186,12.7158 4.6049,15.0182 5.5991,3.0874 15.3845,-6.1224 24.7513,-10.9366 9.3668,-4.8142 14.7043,0.8372 20.4604,7.2213 5.2329,5.5991 11.146,13.5007 6.2271,23.8617 -15.6985,32.7053 -50.6015,51.5435 -91.5747,51.5435 -38.6706,0 -87.964,-22.1872 -87.964,-80.1671 v -203.1911 c 0,-31.1354 -22.5535,-41.8627 -40.0835,-39.7172 -26.4782,3.2967 -45.735,25.4316 -45.735,64.8872 v 152.1709 c 0,15.3322 5.2328,31.868 16.6404,37.4148 l 20.9314,11.5646 a 10.465676,10.465676 0 0 1 5.7561,10.4656 20.931352,20.931352 0 0 1 0,3.82 l -3.0351,30.1935 c -1.3605,7.9016 -6.7503,9.2098 -17.216,9.2098 h -172.6837 c -10.4656,0 -15.6985,-1.3082 -17.216,-9.2098 l -2.9827,-30.1935 a 20.931352,20.931352 0 0 1 0,-3.82 10.465676,10.465676 0 0 1 5.7561,-10.4656 l 20.9314,-11.5646 c 11.5122,-5.5468 16.6404,-22.0826 16.6404,-37.4148 V 2621.648 c 0,-15.9602 -2.7211,-36.6299 -16.7451,-43.4326 l -13.2914,-7.6399 a 10.465676,10.465676 0 0 1 -6.1224,-10.989 23.390786,23.390786 0 0 1 0.3663,-3.977 l 3.1397,-22.7105 c 1.4128,-8.2679 7.012,-9.5761 17.9486,-9.5761 h 122.9194 a 16.274126,16.274126 0 0 1 16.2218,11.7739 z"
     id="path44"
     style="fill:#007125;fill-opacity:1;stroke-width:5.23283815"
     inkscape:connector-curvature="0"
     inkscape:export-filename="G:\Users\suitedoalex\sites\heineken-logo-4.png"
     inkscape:export-xdpi="11.623726"
     inkscape:export-ydpi="11.623726" />
  <path
     class="cls-1"
     d="m 3408.1678,2543.417 20.5651,-9.9947 c 26.1642,-12.2448 77.289,-34.2228 119.5703,-20.9313 36.6299,11.6692 68.0269,38.3043 68.0269,108.1104 v 211.459 c 0,9.0004 0.4186,12.7158 4.6049,15.0182 5.5991,3.0874 15.4369,-6.1224 24.7513,-10.9366 9.3145,-4.8142 14.7043,0.8372 20.4604,7.2213 5.2329,5.5991 11.146,13.5007 6.1748,23.8617 -15.6985,32.7053 -50.6016,51.5435 -91.5747,51.5435 -38.6707,0 -87.964,-22.1872 -87.964,-80.1671 v -203.1911 c 0,-31.1354 -22.5535,-41.8627 -40.0835,-39.7172 -26.4782,3.2967 -45.735,25.4316 -45.735,64.8872 v 152.1709 c 0,15.3322 5.2328,31.868 16.6404,37.4148 l 20.9313,11.5646 a 10.465676,10.465676 0 0 1 5.7562,10.4656 21.297651,21.297651 0 0 1 0,3.82 l -3.0351,30.1935 c -1.3082,7.9016 -6.7503,9.2098 -17.216,9.2098 h -172.6837 c -10.4656,0 -15.6985,-1.3082 -17.216,-9.2098 l -2.9827,-30.1935 a 20.931352,20.931352 0 0 1 0,-3.82 10.465676,10.465676 0 0 1 5.7038,-10.4656 l 20.9313,-11.5646 c 11.5123,-5.5468 16.6404,-22.0826 16.6404,-37.4148 V 2621.648 c 0,-15.9602 -2.721,-36.6299 -16.745,-43.4326 l -13.2914,-7.6399 a 10.465676,10.465676 0 0 1 -6.1225,-10.989 24.280368,24.280368 0 0 1 0.3663,-3.977 l 3.1397,-22.7105 c 1.4129,-8.2679 7.012,-9.5761 17.9487,-9.5761 h 122.1867 a 16.326455,16.326455 0 0 1 16.2218,11.7739 z"
     id="path46"
     style="fill:#007125;fill-opacity:1;stroke-width:5.23283815"
     inkscape:connector-curvature="0"
     inkscape:export-filename="G:\Users\suitedoalex\sites\heineken-logo-4.png"
     inkscape:export-xdpi="11.623726"
     inkscape:export-ydpi="11.623726" />
  <path
     class="cls-1"
     d="m 2782.0588,2817.984 a 85.242931,85.242931 0 0 0 31.9203,32.1297 l 20.9313,11.5645 a 10.465676,10.465676 0 0 1 5.7561,10.4657 21.506964,21.506964 0 0 1 0,3.82 l -2.9827,30.1935 c -1.3605,7.9015 -6.7503,9.2097 -17.216,9.2097 h -104.8661 c -17.844,0 -19.2045,-5.2328 -27.2631,-19.7277 l -87.5454,-159.3923 -32.8622,31.397 v 44.8455 c 0,15.3322 7.2213,31.397 19.1522,37.4147 l 20.9314,11.5646 a 10.465676,10.465676 0 0 1 5.7561,10.4657 20.460397,20.460397 0 0 1 0,3.82 l -3.0351,30.1934 c -1.3605,7.9016 -6.7503,9.2098 -17.216,9.2098 h -172.6837 c -10.4656,0 -15.6985,-1.3082 -17.216,-9.2098 l -2.9827,-30.1934 a 20.094098,20.094098 0 0 1 0,-3.82 10.465676,10.465676 0 0 1 5.7561,-10.4657 l 20.9314,-11.5646 c 11.5122,-5.5468 16.6404,-22.0825 16.6404,-37.4147 v -341.9137 c 0,-15.3322 -4.7619,-31.397 -16.6404,-37.4148 l -20.9314,-11.5645 a 10.465676,10.465676 0 0 1 -5.7561,-10.4657 19.989441,19.989441 0 0 1 0,-3.82 l 2.9827,-21.507 c 1.3605,-7.9015 6.7504,-9.2098 17.216,-9.2098 h 125.3265 a 22.29189,22.29189 0 0 1 22.2919,22.3443 v 259.6011 l 55.7297,-50.2876 c 7.9539,-6.855 20.9314,-18.2626 26.1642,-23.2861 5.2329,-5.0236 6.1224,-12.6112 -1.0989,-15.6986 l -19.6754,-8.8958 a 9.4191084,9.4191084 0 0 1 -5.5992,-9.9947 21.873263,21.873263 0 0 1 0.3663,-3.6107 l 2.8781,-27.577 c 1.2559,-7.483 6.384,-8.7389 16.3264,-8.7389 h 149.3976 c 9.9423,0 15.0705,1.2036 16.3264,8.7389 l 2.8781,27.577 a 33.804133,33.804133 0 0 1 0.3139,3.6107 c 0.314,5.9654 -6.7503,8.8435 -11.0936,10.832 a 106.59291,106.59291 0 0 0 -20.3557,8.6342 204.08068,204.08068 0 0 0 -33.0716,25.4839 l -57.8751,55.5204 z"
     id="path48"
     style="fill:#007125;fill-opacity:1;stroke-width:5.23283815"
     inkscape:connector-curvature="0"
     inkscape:export-filename="G:\Users\suitedoalex\sites\heineken-logo-4.png"
     inkscape:export-xdpi="11.623726"
     inkscape:export-ydpi="11.623726" />
  <rect
     style="fill:#007125;fill-opacity:1;fill-rule:evenodd;stroke-width:0.39028719"
     id="rect144-7"
     width="4096"
     height="2656.1531"
     x="8713.6992"
     y="789.00824"
     inkscape:export-filename="G:\Users\suitedoalex\sites\heineken-logo-5.png"
     inkscape:export-xdpi="33.75"
     inkscape:export-ydpi="33.75" />
  <path
     class="cls-1"
     d="m 11364.257,2106.3687 v -2.5641 h -17.164 a 22.762845,22.762845 0 0 0 24.228,25.6409 c 16.955,0 27.211,-10.4657 27.211,-27.2631 0,-9.7854 -3.925,-19.2045 -14.129,-21.7163 v -0.3139 c 8.949,-3.5584 11.303,-12.9251 11.303,-21.6116 0,-14.652 -8.529,-24.0188 -23.338,-24.0188 -16.798,0 -22.083,12.2972 -21.559,27.1585 h 15.698 v -1.9362 c 0,-4.0293 0.837,-9.5761 6.123,-9.5761 5.285,0 6.279,5.2328 6.279,9.3668 0,10.4657 -4.134,12.1925 -14.076,12.1925 v 15.6985 c 10.465,-0.3663 13.814,2.5118 13.814,12.8205 0,5.2328 -0.471,12.9774 -7.901,12.9774 a 6.8550178,6.8550178 0 0 1 -6.855,-7.169"
     id="path8-7-9"
     style="fill:#ffffff;fill-opacity:1;stroke-width:5.23283815"
     inkscape:connector-curvature="0"
     inkscape:export-filename="G:\Users\suitedoalex\sites\heineken-logo-5.png"
     inkscape:export-xdpi="33.75"
     inkscape:export-ydpi="33.75" />
  <polygon
     class="cls-1"
     points="414.95,178.38 418.59,178.38 425.21,160.79 415.71,160.79 415.71,163.81 420.44,163.81 "
     id="polygon10-2-3"
     style="fill:#ffffff;fill-opacity:1"
     transform="matrix(5.232838,0,0,5.232838,9110.0025,1194.5467)"
     inkscape:export-filename="G:\Users\suitedoalex\sites\heineken-logo-5.png"
     inkscape:export-xdpi="33.75"
     inkscape:export-ydpi="33.75" />
  <path
     class="cls-1"
     d="m 11246.884,2078.373 v 0 a 19.256844,19.256844 0 0 0 12.612,-19.4662 23.0245,23.0245 0 1 0 -46.049,0 19.518486,19.518486 0 0 0 12.506,19.4139 v 0.3139 c -11.355,3.82 -16.012,12.4542 -16.012,24.3327 a 26.42585,26.42585 0 1 0 52.851,0 c 0,-11.5645 -4.343,-20.9313 -15.698,-24.3327 m -10.728,-29.6178 c 4.972,0 5.6,6.384 5.6,9.7854 0,3.4013 0,10.4657 -5.6,10.4657 -4.552,0 -5.232,-7.0644 -5.232,-10.4657 0,-3.4014 0.732,-9.6808 5.232,-9.6808 m 0,64.7302 c -6.331,0 -7.64,-8.3202 -7.64,-12.9774 0,-4.6572 1.309,-13.3437 7.536,-13.3437 6.227,0 8.058,8.7388 8.058,13.3437 0,4.6049 -1.779,12.9774 -7.954,12.9774"
     id="path12-3-2"
     style="fill:#ffffff;fill-opacity:1;stroke-width:5.23283815"
     inkscape:connector-curvature="0"
     inkscape:export-filename="G:\Users\suitedoalex\sites\heineken-logo-5.png"
     inkscape:export-xdpi="33.75"
     inkscape:export-ydpi="33.75" />
  <polygon
     class="cls-1"
     points="393.17,178.38 396.53,178.38 396.53,160.79 391.49,160.79 391.49,163.81 393.17,163.81 "
     id="polygon14-6-8"
     style="fill:#ffffff;fill-opacity:1"
     transform="matrix(5.232838,0,0,5.232838,9110.0025,1194.5467)"
     inkscape:export-filename="G:\Users\suitedoalex\sites\heineken-logo-5.png"
     inkscape:export-xdpi="33.75"
     inkscape:export-ydpi="33.75" />
  <polygon
     class="cls-1"
     points="199.84,175.1 195.91,175.1 195.91,171.14 199.33,171.14 199.33,167.88 195.91,167.88 195.91,164.05 199.81,164.05 199.81,160.79 192.11,160.79 192.11,178.38 199.84,178.38 "
     id="polygon16-4-2"
     style="fill:#ffffff;fill-opacity:1"
     transform="matrix(5.232838,0,0,5.232838,9110.0025,1194.5467)"
     inkscape:export-filename="G:\Users\suitedoalex\sites\heineken-logo-5.png"
     inkscape:export-xdpi="33.75"
     inkscape:export-ydpi="33.75" />
  <path
     class="cls-1"
     d="m 10333.65,2106.264 a 11.512244,11.512244 0 0 0 -11.722,11.5123 11.669229,11.669229 0 0 0 11.722,11.6692 11.459915,11.459915 0 0 0 11.355,-11.6692 11.355258,11.355258 0 0 0 -11.355,-11.5123"
     id="path18-2-6"
     style="fill:#ffffff;fill-opacity:1;stroke-width:5.23283815"
     inkscape:connector-curvature="0"
     inkscape:export-filename="G:\Users\suitedoalex\sites\heineken-logo-5.png"
     inkscape:export-xdpi="33.75"
     inkscape:export-ydpi="33.75" />
  <polygon
     class="cls-1"
     points="229.02,160.79 219.2,160.79 219.2,164.05 222.19,164.05 222.19,178.38 226.02,178.38 226.02,164.05 229.02,164.05 "
     id="polygon20-6-1"
     style="fill:#ffffff;fill-opacity:1"
     transform="matrix(5.232838,0,0,5.232838,9110.0025,1194.5467)"
     inkscape:export-filename="G:\Users\suitedoalex\sites\heineken-logo-5.png"
     inkscape:export-xdpi="33.75"
     inkscape:export-ydpi="33.75" />
  <path
     class="cls-1"
     d="m 10229.202,2056.6567 v -17.7916 a 38.879986,38.879986 0 0 0 -17.844,-4.3433 25.274608,25.274608 0 0 0 -26.164,27.0015 c 0,13.2914 7.012,20.1987 18.576,27.2107 5.547,3.8723 11.826,6.3841 11.826,13.3961 a 10.465676,10.465676 0 0 1 -11.616,10.0994 26.16419,26.16419 0 0 1 -15.071,-4.9712 v 17.4777 a 34.118104,34.118104 0 0 0 17.216,4.6572 27.158429,27.158429 0 0 0 29.042,-28.7806 c 0,-24.9083 -30.403,-25.8503 -30.403,-40.9208 a 8.948153,8.948153 0 0 1 9.995,-9.0528 24.280368,24.280368 0 0 1 14.652,5.9654"
     id="path22-0-5"
     style="fill:#ffffff;fill-opacity:1;stroke-width:5.23283815"
     inkscape:connector-curvature="0"
     inkscape:export-filename="G:\Users\suitedoalex\sites\heineken-logo-5.png"
     inkscape:export-xdpi="33.75"
     inkscape:export-ydpi="33.75" />
  <path
     class="cls-1"
     d="m 10602.774,1549.7517 c -90.423,0.8896 -253.269,6.1748 -326.163,8.6342 -22.972,0.7849 -36.63,1.7792 -36.63,1.7792 a 20.931352,20.931352 0 0 0 -17.53,11.8785 c -1.726,4.0816 -2.878,7.9016 -2.878,7.9016 0,0 -1.308,3.7676 -2.302,8.1109 a 20.931352,20.931352 0 0 0 7.012,19.8848 c 0,0 10.466,8.8958 28.676,23.0768 57.561,44.8454 186.132,144.7926 258.764,198.8478 -27.106,86.2895 -72.422,242.8037 -92.569,312.8714 -6.332,22.0826 -9.628,35.4787 -9.628,35.4787 a 20.931352,20.931352 0 0 0 5.913,20.3557 c 3.349,2.9304 6.646,5.2328 6.646,5.2328 0,0 3.192,2.4595 7.012,4.7096 a 20.931352,20.931352 0 0 0 20.931,-0.6803 c 0,0 11.721,-7.2736 30.769,-20.1464 60.387,-40.8161 195.237,-132.2862 268.968,-184.7192 73.678,52.3284 208.528,143.9031 268.915,184.7192 19.048,12.8728 30.769,20.1464 30.769,20.1464 a 20.931352,20.931352 0 0 0 20.932,0.6803 82.992811,82.992811 0 0 0 7.012,-4.7096 c 0,0 3.296,-2.2501 6.646,-5.2328 a 20.931352,20.931352 0 0 0 5.913,-20.3557 c 0,0 -3.297,-13.3961 -9.681,-35.4787 -20.147,-70.0677 -65.463,-226.5819 -92.569,-312.8714 72.632,-53.8982 201.255,-153.8977 258.764,-198.8478 18.105,-14.1287 28.676,-23.0768 28.676,-23.0768 a 20.931352,20.931352 0 0 0 7.169,-19.9371 c -0.994,-4.3433 -2.355,-8.1109 -2.355,-8.1109 0,0 -1.151,-3.82 -2.878,-7.954 a 20.931352,20.931352 0 0 0 -17.53,-11.8785 c 0,0 -13.762,-1.0466 -36.63,-1.7792 -72.893,-2.4594 -235.478,-7.7446 -326.163,-8.6341 -28.519,-85.6093 -83.673,-238.8791 -108.581,-307.4293 -7.849,-21.6116 -13.082,-34.3797 -13.082,-34.3797 a 20.931352,20.931352 0 0 0 -16.745,-12.9775 c -4.344,-0.3139 -8.373,-0.3139 -8.373,-0.3139 0,0 -4.029,0 -8.425,0.2616 a 20.931352,20.931352 0 0 0 -16.745,12.9774 c 0,0 -5.233,12.7682 -13.082,34.3798 -24.856,68.5502 -80.219,221.7677 -109,307.5339 z"
     id="path24-3-8"
     inkscape:connector-curvature="0"
     style="fill:#ffffff;stroke-width:5.23283815"
     inkscape:export-filename="G:\Users\suitedoalex\sites\heineken-logo-5.png"
     inkscape:export-xdpi="33.75"
     inkscape:export-ydpi="33.75" />
  <path
     class="cls-2"
     d="m 10556.359,1815.3182 -116.274,357.2982 a 1.517523,1.517523 0 0 0 0.524,1.6745 c 0,0 0.837,0.7326 1.779,1.4129 0.942,0.6803 1.884,1.2559 1.884,1.2559 a 1.517523,1.517523 0 0 0 1.779,0 l 303.923,-220.9828 303.923,220.9828 a 1.517523,1.517523 0 0 0 1.78,0 c 0,0 0.994,-0.5756 1.883,-1.2559 0.89,-0.6803 1.78,-1.4129 1.78,-1.4129 a 1.4651946,1.4651946 0 0 0 0.523,-1.6745 l -116.274,-357.3505 304.08,-220.7211 a 1.517523,1.517523 0 0 0 0.576,-1.6745 c 0,0 0,-1.0989 -0.628,-2.1978 -0.628,-1.0989 -0.785,-2.1455 -0.785,-2.1455 a 1.4651946,1.4651946 0 0 0 -1.413,-1.0465 h -375.77 l -115.96,-357.2459 a 1.517523,1.517523 0 0 0 -1.412,-1.0465 c 0,0 -1.099,0 -2.303,0 -1.203,0 -2.25,0 -2.25,0 a 1.517523,1.517523 0 0 0 -1.465,1.0465 l -115.96,357.4029 h -375.77 a 1.517523,1.517523 0 0 0 -1.465,1.0465 c 0,0 -0.471,1.0466 -0.785,2.1455 -0.314,1.0989 -0.628,2.1978 -0.628,2.1978 a 1.517523,1.517523 0 0 0 0.575,1.6745 z"
     id="path26-1-5"
     inkscape:connector-curvature="0"
     style="fill:#e3000f;stroke-width:5.23283815"
     inkscape:export-filename="G:\Users\suitedoalex\sites\heineken-logo-5.png"
     inkscape:export-xdpi="33.75"
     inkscape:export-ydpi="33.75" />
  <path
     class="cls-1"
     d="m 12336.675,2352.9923 a 76.818062,76.818062 0 1 0 76.818,76.8704 76.818062,76.818062 0 0 0 -76.818,-76.8704 z m 0,138.1993 a 61.328861,61.328861 0 1 1 61.172,-61.3289 61.485846,61.485846 0 0 1 -61.172,61.3289 z"
     id="path28-6-8"
     style="fill:#ececec;fill-opacity:1;stroke-width:5.23283815"
     inkscape:connector-curvature="0"
     inkscape:export-filename="G:\Users\suitedoalex\sites\heineken-logo-5.png"
     inkscape:export-xdpi="33.75"
     inkscape:export-ydpi="33.75" />
  <path
     class="cls-1"
     d="m 12357.345,2429.4964 a 21.873263,21.873263 0 0 0 12.402,-20.9313 c 0,-17.6347 -15.699,-23.0768 -25.222,-23.0768 h -39.613 v 82.7835 h 18.943 v -32.339 h 7.116 c 9.577,0 15.123,2.5641 17.792,11.4076 a 160.9621,160.9621 0 0 0 6.803,20.9314 h 20.617 a 66.038416,66.038416 0 0 1 -7.64,-20.1988 23.600099,23.600099 0 0 0 -11.198,-18.5766 z m -18.106,-9.9947 h -15.175 v -19.0475 h 13.344 c 5.808,0 12.768,2.4071 12.768,9.0528 a 10.099377,10.099377 0 0 1 -10.937,10.204 z"
     id="path30-1-9"
     style="fill:#ececec;fill-opacity:1;stroke-width:5.23283815"
     inkscape:connector-curvature="0"
     inkscape:export-filename="G:\Users\suitedoalex\sites\heineken-logo-5.png"
     inkscape:export-xdpi="33.75"
     inkscape:export-ydpi="33.75" />
  <path
     class="cls-1"
     d="m 9956.9373,2809.0866 c -21.7686,21.8209 -50.0783,43.5372 -77.9169,52.3284 -26.1642,8.4772 -101.1508,15.0182 -123.1811,-47.0956 -4.7618,-13.396 -0.8895,-17.53 11.1983,-20.9313 18.0533,-5.2328 64.6256,-19.0475 113.7619,-37.4671 a 587.64771,587.64771 0 0 0 96.8075,-45.3687 c 22.2919,-14.652 25.641,-35.2694 15.6985,-57.5613 -31.397,-70.3293 -102.0926,-143.9554 -219.7792,-121.5589 -93.1444,18.0533 -160.3864,102.1451 -160.3864,198.534 0,119.2564 71.8469,189.0101 163.3168,210.6217 84.5627,20.1465 183.9866,-20.9313 226.4773,-89.7955 16.902,-26.5305 -30.6121,-58.0321 -45.9967,-41.7057 z m -211.7729,-93.8771 c -9.1575,-25.2746 -1.8315,-102.6683 40.8161,-117.3202 44.8454,-15.3846 72.4225,7.7446 85.8185,52.9563 5.2329,16.7451 3.8723,34.4321 -1.6221,41.0778 -7.954,9.6284 -22.135,15.4368 -34.9031,19.6754 l -33.5948,10.9367 c -33.0192,11.4599 -48.77,13.71 -56.5146,-7.326 z"
     id="path32-7-8"
     style="fill:#ececec;fill-opacity:1;stroke-width:5.23283815"
     inkscape:connector-curvature="0"
     inkscape:export-filename="G:\Users\suitedoalex\sites\heineken-logo-5.png"
     inkscape:export-xdpi="33.75"
     inkscape:export-ydpi="33.75" />
  <path
     class="cls-1"
     d="m 11052.38,2809.0866 c -21.769,21.8209 -50.078,43.5372 -77.917,52.3284 -26.164,8.4772 -101.151,15.0182 -123.181,-47.0956 -4.762,-13.396 -0.89,-17.53 11.198,-20.9313 18.053,-5.2328 64.626,-19.0475 113.762,-37.4671 a 587.54305,587.54305 0 0 0 96.808,-45.3687 c 22.291,-14.652 25.64,-35.2694 15.698,-57.5613 -31.397,-70.3293 -102.093,-143.9554 -219.779,-121.5589 -93.511,17.844 -160.491,102.0405 -160.491,198.3247 0,119.2564 71.847,189.0101 163.317,210.6217 84.51,20.1464 183.934,-20.9313 226.477,-89.7955 16.954,-26.3212 -30.508,-57.8228 -45.892,-41.4964 z m -211.825,-93.8771 c -5.233,-15.1229 -5.233,-48.8747 5.232,-76.7134 6.96,-18.6812 17.321,-33.2809 35.531,-40.6068 a 57.561218,57.561218 0 0 1 51.753,1.9361 c 15.699,9.0528 26.897,26.8968 34.014,51.0202 5.232,16.7451 3.872,34.4321 -1.57,41.0778 -7.954,9.6284 -20.356,14.4949 -34.903,19.6754 -14.548,5.1805 -27.473,9.3668 -33.595,11.303 -33.176,10.4133 -48.718,13.3437 -56.462,-7.6923 z"
     id="path34-5-4"
     style="fill:#ececec;fill-opacity:1;stroke-width:5.23283815"
     inkscape:connector-curvature="0"
     inkscape:export-filename="G:\Users\suitedoalex\sites\heineken-logo-5.png"
     inkscape:export-xdpi="33.75"
     inkscape:export-ydpi="33.75" />
  <path
     class="cls-1"
     d="m 11887.436,2809.0866 c -21.768,21.8209 -50.078,43.5372 -77.917,52.3284 -26.164,8.4772 -101.151,15.0182 -123.181,-47.0956 -4.762,-13.396 -0.889,-17.53 11.198,-20.9313 18.106,-5.2328 64.626,-19.0475 113.762,-37.4671 a 587.28141,587.28141 0 0 0 96.808,-45.3687 c 22.292,-14.652 25.641,-35.2694 15.698,-57.5613 -31.397,-70.3293 -102.092,-143.9554 -219.779,-121.5589 -93.511,17.844 -160.491,102.0405 -160.491,198.3247 0,119.2564 71.847,189.0101 163.317,210.6217 84.563,20.1464 183.986,-20.9313 226.477,-89.7955 16.955,-26.3212 -30.56,-57.8228 -45.892,-41.4964 z m -211.825,-93.8771 c -5.233,-15.1229 -5.233,-48.8747 5.233,-76.7134 6.959,-18.6812 17.32,-33.2809 35.531,-40.6068 a 57.561218,57.561218 0 0 1 51.752,1.9361 c 15.699,9.0528 26.897,26.8968 34.014,51.0202 5.233,16.7451 3.872,34.4321 -1.57,41.0778 -7.954,9.6284 -20.356,14.4949 -34.903,19.6754 -14.547,5.1805 -27.472,9.3668 -33.595,11.303 -33.176,10.4133 -48.718,13.3437 -56.462,-7.6923 z"
     id="path36-9-7"
     style="fill:#ececec;fill-opacity:1;stroke-width:5.23283815"
     inkscape:connector-curvature="0"
     inkscape:export-filename="G:\Users\suitedoalex\sites\heineken-logo-5.png"
     inkscape:export-xdpi="33.75"
     inkscape:export-ydpi="33.75" />
  <path
     class="cls-1"
     d="m 9423.9728,2831.6925 c 0,15.9601 -5.2328,33.4901 -17.373,39.0369 l -26.6875,12.0356 a 10.465676,10.465676 0 0 0 -6.1224,10.9889 24.175712,24.175712 0 0 0 0.3663,3.977 l 3.1397,30.2981 c 1.4129,8.2156 7.012,9.5761 17.9486,9.5761 h 193.3534 c 10.8843,0 16.5358,-1.3605 17.9486,-9.5761 l 3.1397,-30.2981 a 24.385025,24.385025 0 0 0 0.3663,-3.977 10.465676,10.465676 0 0 0 -6.1224,-10.9889 l -26.6875,-12.0356 c -12.2971,-5.4944 -17.373,-23.0245 -17.373,-39.0369 v -334.9018 c 0,-15.9601 5.2328,-33.4901 17.373,-39.0369 l 26.6875,-12.0879 a 10.465676,10.465676 0 0 0 6.1224,-10.989 24.175712,24.175712 0 0 0 -0.3663,-3.9769 l -3.1397,-22.7629 c -1.4128,-8.2155 -7.012,-9.576 -17.9486,-9.576 H 9404.402 c -10.8843,0 -16.5358,1.3605 -17.9486,9.576 l -3.1397,22.7629 a 24.071055,24.071055 0 0 0 -0.3663,3.9769 10.465676,10.465676 0 0 0 6.1224,10.989 l 21.7163,12.0879 c 12.4018,7.1166 13.239,23.0244 13.239,39.0369 v 93.354 a 11.773885,11.773885 0 0 1 -11.6692,12.0355 h -104.6568 a 11.773885,11.773885 0 0 1 -11.7738,-11.7739 V 2497 c 0,-15.9601 0.8372,-31.9203 13.239,-39.0369 l 21.7686,-12.0879 a 10.465676,10.465676 0 0 0 6.1225,-10.9889 24.22804,24.22804 0 0 0 -0.3663,-3.977 l -3.1397,-22.7628 c -1.4129,-8.2156 -7.012,-9.5761 -17.9487,-9.5761 h -184.1435 c -10.9367,0 -16.5358,1.3605 -17.9487,9.5761 l -3.1397,22.7628 a 24.175712,24.175712 0 0 0 -0.3663,3.82 10.465676,10.465676 0 0 0 6.1224,10.9889 l 26.6875,12.0879 c 12.2972,5.4945 17.373,23.0245 17.373,39.037 v 334.9017 c 0,15.9601 -5.2328,33.4902 -17.373,39.037 l -26.6875,12.0355 a 10.465676,10.465676 0 0 0 -6.1224,10.9366 24.385025,24.385025 0 0 0 0.3663,3.977 l 3.1397,30.2981 c 1.4129,8.2156 7.012,9.5761 17.9487,9.5761 h 193.0917 c 10.8843,0 16.5358,-1.3605 17.9486,-9.5761 l 3.1397,-30.2981 a 24.280368,24.280368 0 0 0 0.3663,-3.977 10.465676,10.465676 0 0 0 -6.1224,-10.9889 l -26.6875,-12.0356 c -12.3495,-5.4944 -17.373,-23.0245 -17.373,-39.0369 v -136.0538 a 11.773885,11.773885 0 0 1 11.7739,-11.7739 h 104.6568 a 11.773885,11.773885 0 0 1 11.7215,11.7739 z"
     id="path38-4-7"
     style="fill:#ececec;fill-opacity:1;stroke-width:5.23283815"
     inkscape:connector-curvature="0"
     inkscape:export-filename="G:\Users\suitedoalex\sites\heineken-logo-5.png"
     inkscape:export-xdpi="33.75"
     inkscape:export-ydpi="33.75" />
  <ellipse
     class="cls-1"
     cx="10115.858"
     cy="2455.0325"
     rx="69.701401"
     ry="67.294296"
     id="ellipse40-6-9"
     style="fill:#ececec;fill-opacity:1;stroke-width:5.23283815"
     inkscape:export-filename="G:\Users\suitedoalex\sites\heineken-logo-5.png"
     inkscape:export-xdpi="33.75"
     inkscape:export-ydpi="33.75" />
  <path
     class="cls-1"
     d="m 10039.564,2937.5528 c -10.466,0 -15.699,-1.3082 -17.216,-9.2098 l -3.035,-30.1935 a 20.931352,20.931352 0 0 1 0,-3.82 10.465676,10.465676 0 0 1 5.756,-10.4656 l 20.931,-11.5646 c 11.513,-5.5468 16.641,-22.0826 16.641,-37.4148 v -191.1032 c 0,-15.9602 -2.721,-36.6299 -16.798,-43.4326 l -13.291,-7.6399 a 10.465676,10.465676 0 0 1 -6.123,-10.989 24.071055,24.071055 0 0 1 0.367,-3.977 l 3.139,-22.7106 c 1.413,-8.2679 7.012,-9.5761 17.949,-9.5761 h 130.141 a 11.773885,11.773885 0 0 1 11.774,11.7739 v 277.7068 c 0,15.3322 5.232,31.868 16.64,37.4148 l 20.931,11.5646 a 10.465676,10.465676 0 0 1 5.756,10.4657 20.931352,20.931352 0 0 1 0,3.8199 l -2.982,30.1935 c -1.361,7.9016 -6.751,9.2098 -17.216,9.2098 z"
     id="path42-3-8"
     style="fill:#ececec;fill-opacity:1;stroke-width:5.23283815"
     inkscape:connector-curvature="0"
     inkscape:export-filename="G:\Users\suitedoalex\sites\heineken-logo-5.png"
     inkscape:export-xdpi="33.75"
     inkscape:export-ydpi="33.75" />
  <path
     class="cls-1"
     d="m 10434.539,2565.5502 20.565,-9.9947 c 26.164,-12.2448 77.289,-34.2228 119.57,-20.9313 36.63,11.6692 68.027,38.3043 68.027,108.1105 v 211.459 c 0,9.0004 0.419,12.7158 4.605,15.0182 5.599,3.0874 15.384,-6.1224 24.751,-10.9366 9.367,-4.8142 14.704,0.8372 20.461,7.2213 5.232,5.5991 11.146,13.5007 6.227,23.8617 -15.699,32.7053 -50.602,51.5435 -91.575,51.5435 -38.671,0 -87.964,-22.1872 -87.964,-80.1671 v -203.1911 c 0,-31.1354 -22.554,-41.8627 -40.084,-39.7172 -26.478,3.2967 -45.735,25.4316 -45.735,64.8872 v 152.1709 c 0,15.3322 5.233,31.868 16.641,37.4148 l 20.931,11.5646 a 10.465676,10.465676 0 0 1 5.756,10.4656 20.931352,20.931352 0 0 1 0,3.82 l -3.035,30.1935 c -1.36,7.9016 -6.75,9.2098 -17.216,9.2098 h -172.684 c -10.465,0 -15.698,-1.3082 -17.216,-9.2098 l -2.982,-30.1935 a 20.931352,20.931352 0 0 1 0,-3.82 10.465676,10.465676 0 0 1 5.756,-10.4656 l 20.931,-11.5646 c 11.513,-5.5468 16.641,-22.0826 16.641,-37.4148 v -191.1032 c 0,-15.9602 -2.721,-36.6299 -16.746,-43.4326 l -13.291,-7.6399 a 10.465676,10.465676 0 0 1 -6.122,-10.989 23.390786,23.390786 0 0 1 0.366,-3.977 l 3.14,-22.7106 c 1.412,-8.2679 7.012,-9.5761 17.948,-9.5761 h 122.92 a 16.274126,16.274126 0 0 1 16.222,11.7739 z"
     id="path44-9-2"
     style="fill:#ececec;fill-opacity:1;stroke-width:5.23283815"
     inkscape:connector-curvature="0"
     inkscape:export-filename="G:\Users\suitedoalex\sites\heineken-logo-5.png"
     inkscape:export-xdpi="33.75"
     inkscape:export-ydpi="33.75" />
  <path
     class="cls-1"
     d="m 12121.867,2565.5502 20.565,-9.9947 c 26.165,-12.2448 77.289,-34.2228 119.571,-20.9313 36.63,11.6692 68.027,38.3043 68.027,108.1105 v 211.459 c 0,9.0004 0.418,12.7158 4.604,15.0182 5.6,3.0874 15.437,-6.1224 24.752,-10.9366 9.314,-4.8142 14.704,0.8372 20.46,7.2213 5.233,5.5991 11.146,13.5007 6.175,23.8617 -15.699,32.7053 -50.602,51.5435 -91.575,51.5435 -38.67,0 -87.964,-22.1872 -87.964,-80.1671 v -203.1911 c 0,-31.1354 -22.553,-41.8627 -40.083,-39.7172 -26.478,3.2967 -45.735,25.4316 -45.735,64.8872 v 152.1709 c 0,15.3322 5.233,31.868 16.64,37.4148 l 20.931,11.5646 a 10.465676,10.465676 0 0 1 5.757,10.4656 21.297651,21.297651 0 0 1 0,3.82 l -3.035,30.1935 c -1.309,7.9016 -6.751,9.2098 -17.216,9.2098 h -172.684 c -10.466,0 -15.699,-1.3082 -17.216,-9.2098 l -2.983,-30.1935 a 20.931352,20.931352 0 0 1 0,-3.82 10.465676,10.465676 0 0 1 5.704,-10.4656 l 20.931,-11.5646 c 11.513,-5.5468 16.641,-22.0826 16.641,-37.4148 v -191.1032 c 0,-15.9602 -2.721,-36.6299 -16.745,-43.4326 l -13.292,-7.6399 a 10.465676,10.465676 0 0 1 -6.122,-10.989 24.280368,24.280368 0 0 1 0.366,-3.977 l 3.14,-22.7106 c 1.413,-8.2679 7.012,-9.5761 17.948,-9.5761 h 122.187 a 16.326455,16.326455 0 0 1 16.222,11.7739 z"
     id="path46-3-5"
     style="fill:#ececec;fill-opacity:1;stroke-width:5.23283815"
     inkscape:connector-curvature="0"
     inkscape:export-filename="G:\Users\suitedoalex\sites\heineken-logo-5.png"
     inkscape:export-xdpi="33.75"
     inkscape:export-ydpi="33.75" />
  <path
     class="cls-1"
     d="m 11495.758,2840.1173 a 85.242931,85.242931 0 0 0 31.921,32.1297 l 20.931,11.5645 a 10.465676,10.465676 0 0 1 5.756,10.4657 21.506964,21.506964 0 0 1 0,3.82 l -2.983,30.1935 c -1.36,7.9015 -6.75,9.2097 -17.216,9.2097 h -104.866 c -17.844,0 -19.204,-5.2328 -27.263,-19.7277 l -87.545,-159.3923 -32.863,31.397 v 44.8455 c 0,15.3322 7.222,31.397 19.153,37.4147 l 20.931,11.5646 a 10.465676,10.465676 0 0 1 5.756,10.4657 20.460397,20.460397 0 0 1 0,3.82 l -3.035,30.1934 c -1.36,7.9016 -6.75,9.2098 -17.216,9.2098 h -172.684 c -10.465,0 -15.698,-1.3082 -17.216,-9.2098 l -2.982,-30.1934 a 20.094098,20.094098 0 0 1 0,-3.82 10.465676,10.465676 0 0 1 5.756,-10.4657 l 20.931,-11.5646 c 11.512,-5.5468 16.641,-22.0825 16.641,-37.4147 v -341.9138 c 0,-15.3322 -4.762,-31.397 -16.641,-37.4148 l -20.931,-11.5645 a 10.465676,10.465676 0 0 1 -5.756,-10.4657 19.989441,19.989441 0 0 1 0,-3.82 l 2.982,-21.507 c 1.361,-7.9015 6.751,-9.2098 17.216,-9.2098 h 125.327 a 22.29189,22.29189 0 0 1 22.292,22.3443 v 259.6012 l 55.729,-50.2876 c 7.954,-6.855 20.932,-18.2626 26.165,-23.2861 5.233,-5.0236 6.122,-12.6112 -1.099,-15.6986 l -19.676,-8.8958 a 9.4191084,9.4191084 0 0 1 -5.599,-9.9948 21.873263,21.873263 0 0 1 0.366,-3.6107 l 2.879,-27.577 c 1.255,-7.483 6.384,-8.7389 16.326,-8.7389 h 149.398 c 9.942,0 15.07,1.2036 16.326,8.7389 l 2.878,27.577 a 33.804133,33.804133 0 0 1 0.314,3.6107 c 0.314,5.9655 -6.75,8.8436 -11.094,10.8321 a 106.59291,106.59291 0 0 0 -20.355,8.6342 204.08068,204.08068 0 0 0 -33.072,25.4839 l -57.875,55.5204 z"
     id="path48-4-0"
     style="fill:#ececec;fill-opacity:1;stroke-width:5.23283815"
     inkscape:connector-curvature="0"
     inkscape:export-filename="G:\Users\suitedoalex\sites\heineken-logo-5.png"
     inkscape:export-xdpi="33.75"
     inkscape:export-ydpi="33.75" />
</svg>
